<?xml version="1.0" encoding="UTF-8"?>
<svg version="1.1" xmlns="http://www.w3.org/2000/svg" width="640" height="640">
<path d="M0 0 C211.2 0 422.4 0 640 0 C640 211.2 640 422.4 640 640 C428.8 640 217.6 640 0 640 C0 428.8 0 217.6 0 0 Z " fill="#FEFEFE" transform="translate(0,0)"/>
<path d="M0 0 C0.66 0 1.32 0 2 0 C2.67507066 3.06070934 3.33854922 6.1238209 4 9.1875 C4.19078125 10.05181641 4.3815625 10.91613281 4.578125 11.80664062 C4.75859375 12.64775391 4.9390625 13.48886719 5.125 14.35546875 C5.29257812 15.12528076 5.46015625 15.89509277 5.6328125 16.68823242 C6.02550915 19.16060247 6.06185285 21.50075809 6 24 C8.97 24.33 11.94 24.66 15 25 C16.65 30.28 18.3 35.56 20 41 C22.248125 41.4125 24.49625 41.825 26.8125 42.25 C33.47868867 43.52937692 39.70695823 45.42260035 46 48 C46.65226563 47.19433594 47.30453125 46.38867188 47.9765625 45.55859375 C48.85833707 44.51734931 49.74120762 43.4770323 50.625 42.4375 C51.05167969 41.90447266 51.47835937 41.37144531 51.91796875 40.82226562 C53.2265625 39.30859375 53.2265625 39.30859375 56 37 C60.99534423 36.8651729 64.87867339 39.31489603 69.0625 41.8125 C69.66126953 42.15603516 70.26003906 42.49957031 70.87695312 42.85351562 C74.50317507 44.97046666 77.78859769 47.29853681 81 50 C80.86722656 50.6290625 80.73445312 51.258125 80.59765625 51.90625 C80.22948643 53.69066432 79.87889493 55.47876686 79.54296875 57.26953125 C79 60 79 60 78.36328125 62.19921875 C77.71219429 64.46386946 77.71219429 64.46386946 78 68 C79.67185028 70.02015242 81.50054583 71.47060115 83.5859375 73.05859375 C87.90034156 76.52826821 91.37705893 80.83194048 95 85 C96.32064453 84.65775391 96.32064453 84.65775391 97.66796875 84.30859375 C99.41013672 83.87740234 99.41013672 83.87740234 101.1875 83.4375 C102.33605469 83.14746094 103.48460937 82.85742188 104.66796875 82.55859375 C107.99401432 82.00100346 109.87229393 81.77449336 113 83 C115.84874086 86.32554282 117.85693339 90.19010381 120 94 C120.53753906 94.928125 121.07507813 95.85625 121.62890625 96.8125 C125.18760601 103.32870229 125.18760601 103.32870229 124.42578125 106.0546875 C122.64911769 108.47873805 120.52709376 109.88775498 118.125 111.6875 C114.90455796 114.74878515 114.90455796 114.74878515 113.94287109 118.93212891 C114.55557315 123.44573543 115.92717192 127.74071103 117.36767578 132.05029297 C118.16949881 134.52263223 118.72970576 137.01749483 119.25 139.5625 C119.4975 140.696875 119.745 141.83125 120 143 C127.92 144.98 127.92 144.98 136 147 C136.33 149.97 136.66 152.94 137 156 C138.670625 156.18369141 138.670625 156.18369141 140.375 156.37109375 C145.31304879 156.98834985 150.13999569 158.00613962 155 159.0625 C155.87011719 159.24876953 156.74023438 159.43503906 157.63671875 159.62695312 C159.75846252 160.0816125 161.87932571 160.54037805 164 161 C161.47041394 163.52958606 159.82926671 163.61862558 156.3359375 164.2890625 C155.21445312 164.50820313 154.09296875 164.72734375 152.9375 164.953125 C151.761875 165.17484375 150.58625 165.3965625 149.375 165.625 C148.19164062 165.85445312 147.00828125 166.08390625 145.7890625 166.3203125 C142.8606307 166.88710575 139.93100268 167.44668234 137 168 C136.67 170.31 136.34 172.62 136 175 C130.30601106 177.09570426 125.04801071 178.45018084 119 179 C118.83564453 180.72476563 118.83564453 180.72476563 118.66796875 182.484375 C118.01880509 187.70066351 116.33251146 192.42858012 114.55273438 197.3515625 C113.19352604 201.26849498 113.19352604 201.26849498 113.63671875 205.29296875 C115.12153457 207.15217939 116.63703161 208.5823874 118.5 210.0625 C120.93664912 212.00872186 122.22262121 213.33393182 124 216 C123.78981951 221.3946325 121.44790633 225.22226672 118.6875 229.6875 C118.29626953 230.35072266 117.90503906 231.01394531 117.50195312 231.69726562 C113.29773398 238.62063148 113.29773398 238.62063148 110 240 C107.07415376 239.5622981 104.55784909 239.01844474 101.75 238.1875 C101.00492187 237.98318359 100.25984375 237.77886719 99.4921875 237.56835938 C97.65672792 237.06243141 95.82765878 236.53342134 94 236 C93.57589844 236.49628906 93.15179688 236.99257813 92.71484375 237.50390625 C82.50372578 249.33084948 82.50372578 249.33084948 77 253 C77.13277344 253.6290625 77.26554688 254.258125 77.40234375 254.90625 C78.50749182 260.26258811 79.39604212 265.56437906 80 271 C74.42977585 274.64165525 68.81090391 278.20797319 63.0625 281.5625 C62.18722656 282.07941406 61.31195313 282.59632813 60.41015625 283.12890625 C58 284 58 284 55.953125 283.4453125 C52.67128523 281.01675107 50.17482817 277.87507094 47.51171875 274.80078125 C45.06120319 272.65913291 45.06120319 272.65913291 41.65234375 273.1015625 C36.81179311 274.29228619 32.06825212 275.69564678 27.3046875 277.16015625 C24.35254396 277.91040549 22.01981792 278.17663086 19 278 C18.8453125 279.423125 18.8453125 279.423125 18.6875 280.875 C18.0089081 285.73491554 16.4914524 290.33803874 15 295 C12.03 295.33 9.06 295.66 6 296 C5.96261719 296.63164062 5.92523438 297.26328125 5.88671875 297.9140625 C5.3080375 305.78866613 3.78349214 313.31640179 2 321 C1.34 321 0.68 321 0 321 C-0.67466746 317.77245186 -1.33830569 314.54273065 -2 311.3125 C-2.19078125 310.40048828 -2.3815625 309.48847656 -2.578125 308.54882812 C-2.75859375 307.66259766 -2.9390625 306.77636719 -3.125 305.86328125 C-3.29257812 305.05157471 -3.46015625 304.23986816 -3.6328125 303.40356445 C-4.0153713 300.89938135 -4.06298509 298.52924498 -4 296 C-5.11375 296.020625 -6.2275 296.04125 -7.375 296.0625 C-11 296 -11 296 -13 295 C-13.80045663 292.30941402 -14.4954659 289.66781273 -15.125 286.9375 C-15.39763672 285.79958008 -15.39763672 285.79958008 -15.67578125 284.63867188 C-16.12456584 282.76086265 -16.56323336 280.88064085 -17 279 C-20.01905791 278.18080579 -23.04053079 277.37088233 -26.0625 276.5625 C-26.91005859 276.33240234 -27.75761719 276.10230469 -28.63085938 275.86523438 C-35.72756151 273.88368966 -35.72756151 273.88368966 -43 273 C-45.46155694 274.46280826 -45.46155694 274.46280826 -47.3125 276.75 C-47.96863281 277.46671875 -48.62476563 278.1834375 -49.30078125 278.921875 C-51.13221377 281.09294945 -51.13221377 281.09294945 -53 284 C-62.64799487 281.31121454 -70.28598433 276.31272865 -78 270 C-77.86722656 269.443125 -77.73445313 268.88625 -77.59765625 268.3125 C-77.42105469 267.549375 -77.24445313 266.78625 -77.0625 266 C-76.88847656 265.2575 -76.71445313 264.515 -76.53515625 263.75 C-76.35855469 262.8425 -76.18195313 261.935 -76 261 C-75.49146484 259.13021484 -75.49146484 259.13021484 -74.97265625 257.22265625 C-74.64628396 254.43687075 -74.83224349 253.28341194 -76.27661133 250.84326172 C-78.19293791 248.55587473 -80.22109239 246.50213631 -82.375 244.4375 C-83.41333984 243.33438477 -83.41333984 243.33438477 -84.47265625 242.20898438 C-88.31903171 238.32787263 -88.31903171 238.32787263 -93.36987305 236.72485352 C-95.66912158 236.96320044 -97.77201397 237.39268545 -100 238 C-101.40958984 238.26490234 -101.40958984 238.26490234 -102.84765625 238.53515625 C-103.57855469 238.70917969 -104.30945313 238.88320313 -105.0625 239.0625 C-106.19365234 239.32740234 -106.19365234 239.32740234 -107.34765625 239.59765625 C-107.89292969 239.73042969 -108.43820313 239.86320313 -109 240 C-114.03692311 233.264233 -119.36432491 226.06067448 -122 218 C-120.99491921 214.18639557 -118.16857765 212.30054213 -115.25 209.8125 C-112.08630716 206.87423154 -112.08630716 206.87423154 -110.71484375 202.9765625 C-111.27641468 200.55391768 -112.12912564 198.33116178 -113 196 C-113.76471367 193.15943244 -114.43912779 190.29796658 -115.125 187.4375 C-115.47973748 186.01902119 -115.83635519 184.60101058 -116.1953125 183.18359375 C-116.46085937 182.13300781 -116.72640625 181.08242188 -117 180 C-118.14339844 179.72285156 -119.28679687 179.44570313 -120.46484375 179.16015625 C-121.95577465 178.79445622 -123.44665761 178.42856071 -124.9375 178.0625 C-125.69224609 177.88009766 -126.44699219 177.69769531 -127.22460938 177.50976562 C-132.88671875 176.11328125 -132.88671875 176.11328125 -134 175 C-134.36760731 172.67182036 -134.70241581 170.3381615 -135 168 C-135.78238037 167.85900879 -136.56476074 167.71801758 -137.37084961 167.57275391 C-140.89477441 166.93251699 -144.41609521 166.27894893 -147.9375 165.625 C-149.16919922 165.40328125 -150.40089844 165.1815625 -151.66992188 164.953125 C-152.83974609 164.73398437 -154.00957031 164.51484375 -155.21484375 164.2890625 C-156.29886475 164.09006348 -157.38288574 163.89106445 -158.49975586 163.68603516 C-159.32483643 163.45964355 -160.14991699 163.23325195 -161 163 C-161.33 162.34 -161.66 161.68 -162 161 C-158.08470852 160.16011547 -154.16756028 159.32923187 -150.25 158.5 C-149.13882813 158.26152344 -148.02765625 158.02304687 -146.8828125 157.77734375 C-145.81289062 157.55175781 -144.74296875 157.32617188 -143.640625 157.09375 C-142.65610352 156.88427734 -141.67158203 156.67480469 -140.65722656 156.45898438 C-138 156 -138 156 -134 156 C-134 153.03 -134 150.06 -134 147 C-126.08 145.02 -126.08 145.02 -118 143 C-116.96744463 139.25287151 -115.94859147 135.50292046 -114.9375 131.75 C-114.64294922 130.68652344 -114.34839844 129.62304688 -114.04492188 128.52734375 C-113.77099609 127.50253906 -113.49707031 126.47773438 -113.21484375 125.421875 C-112.95823975 124.47924805 -112.70163574 123.53662109 -112.43725586 122.56542969 C-111.98618923 119.91897065 -112.0221575 118.47920371 -113 116 C-115.28589747 113.70135589 -117.70297287 111.62068325 -120.1640625 109.51171875 C-122 107 -122 107 -122.05078125 103.7265625 C-120.79247406 99.2640158 -118.91380715 95.65786058 -116.5625 91.6875 C-116.15451172 90.97271484 -115.74652344 90.25792969 -115.32617188 89.52148438 C-113.69902192 86.70516121 -112.31098742 84.31098742 -110 82 C-103.89111278 82.40238179 -97.70332314 83.782041 -92 86 C-91.73445313 85.41863281 -91.46890625 84.83726562 -91.1953125 84.23828125 C-87.47475499 77.27135494 -80.98858988 71.97752925 -75 67 C-75.2165625 66.20335937 -75.433125 65.40671875 -75.65625 64.5859375 C-75.9346875 63.52632812 -76.213125 62.46671875 -76.5 61.375 C-76.7784375 60.33085937 -77.056875 59.28671875 -77.34375 58.2109375 C-78.60238395 52.05262138 -78.60238395 52.05262138 -78 49 C-75.6845558 46.79044501 -73.03055322 45.30864921 -70.25 43.75 C-69.15558594 43.1003125 -69.15558594 43.1003125 -68.0390625 42.4375 C-66.04093908 41.26042366 -64.03541024 40.1112575 -62 39 C-61.31099609 38.62351318 -60.62199219 38.24702637 -59.91210938 37.85913086 C-57.17618307 36.62985039 -55.79498836 36.98008965 -53 38 C-50.70131117 40.29449415 -48.71119016 42.7355746 -46.671875 45.26171875 C-44.25577477 47.201835 -44.25577477 47.201835 -42.03344727 46.91503906 C-39.63871137 46.39864549 -37.33814339 45.73046502 -35 45 C-33.39539672 44.56709174 -31.78992486 44.13738987 -30.18359375 43.7109375 C-28.60088484 43.26803953 -27.01885049 42.82272393 -25.4375 42.375 C-24.61958984 42.14554688 -23.80167969 41.91609375 -22.95898438 41.6796875 C-20.9720488 41.1219512 -18.98593489 40.56128904 -17 40 C-16.80664062 39.01257813 -16.61328125 38.02515625 -16.4140625 37.0078125 C-16.15367187 35.72648437 -15.89328125 34.44515625 -15.625 33.125 C-15.36976563 31.84882813 -15.11453125 30.57265625 -14.8515625 29.2578125 C-14 26 -14 26 -12 24 C-9.31160615 23.73008094 -6.70858064 23.91262643 -4 24 C-2.27831944 16.0509642 -1.09136593 8.05753146 0 0 Z " fill="#F8FAFB" transform="translate(319,107)"/>
<path d="M0 0 C0.66 0 1.32 0 2 0 C2.67507066 3.06070934 3.33854922 6.1238209 4 9.1875 C4.19078125 10.05181641 4.3815625 10.91613281 4.578125 11.80664062 C4.75859375 12.64775391 4.9390625 13.48886719 5.125 14.35546875 C5.29257812 15.12528076 5.46015625 15.89509277 5.6328125 16.68823242 C6.02550915 19.16060247 6.06185285 21.50075809 6 24 C8.97 24.33 11.94 24.66 15 25 C16.65 30.28 18.3 35.56 20 41 C22.248125 41.4125 24.49625 41.825 26.8125 42.25 C33.47868867 43.52937692 39.70695823 45.42260035 46 48 C46.65226563 47.19433594 47.30453125 46.38867188 47.9765625 45.55859375 C48.85833707 44.51734931 49.74120762 43.4770323 50.625 42.4375 C51.05167969 41.90447266 51.47835937 41.37144531 51.91796875 40.82226562 C53.2265625 39.30859375 53.2265625 39.30859375 56 37 C60.99534423 36.8651729 64.87867339 39.31489603 69.0625 41.8125 C69.66126953 42.15603516 70.26003906 42.49957031 70.87695312 42.85351562 C74.50317507 44.97046666 77.78859769 47.29853681 81 50 C80.86722656 50.6290625 80.73445312 51.258125 80.59765625 51.90625 C80.22948643 53.69066432 79.87889493 55.47876686 79.54296875 57.26953125 C79 60 79 60 78.36328125 62.19921875 C77.71219429 64.46386946 77.71219429 64.46386946 78 68 C79.67185028 70.02015242 81.50054583 71.47060115 83.5859375 73.05859375 C87.90034156 76.52826821 91.37705893 80.83194048 95 85 C96.32064453 84.65775391 96.32064453 84.65775391 97.66796875 84.30859375 C99.41013672 83.87740234 99.41013672 83.87740234 101.1875 83.4375 C102.33605469 83.14746094 103.48460937 82.85742188 104.66796875 82.55859375 C107.99401432 82.00100346 109.87229393 81.77449336 113 83 C115.84874086 86.32554282 117.85693339 90.19010381 120 94 C120.53753906 94.928125 121.07507813 95.85625 121.62890625 96.8125 C125.18760601 103.32870229 125.18760601 103.32870229 124.42578125 106.0546875 C122.64911769 108.47873805 120.52709376 109.88775498 118.125 111.6875 C114.90455796 114.74878515 114.90455796 114.74878515 113.94287109 118.93212891 C114.55557315 123.44573543 115.92717192 127.74071103 117.36767578 132.05029297 C118.16949881 134.52263223 118.72970576 137.01749483 119.25 139.5625 C119.4975 140.696875 119.745 141.83125 120 143 C127.92 144.98 127.92 144.98 136 147 C136.33 149.97 136.66 152.94 137 156 C138.670625 156.18369141 138.670625 156.18369141 140.375 156.37109375 C145.31304879 156.98834985 150.13999569 158.00613962 155 159.0625 C155.87011719 159.24876953 156.74023438 159.43503906 157.63671875 159.62695312 C159.75846252 160.0816125 161.87932571 160.54037805 164 161 C161.47041394 163.52958606 159.82926671 163.61862558 156.3359375 164.2890625 C155.21445312 164.50820313 154.09296875 164.72734375 152.9375 164.953125 C151.761875 165.17484375 150.58625 165.3965625 149.375 165.625 C148.19164062 165.85445312 147.00828125 166.08390625 145.7890625 166.3203125 C142.8606307 166.88710575 139.93100268 167.44668234 137 168 C136.67 170.31 136.34 172.62 136 175 C130.30601106 177.09570426 125.04801071 178.45018084 119 179 C118.83564453 180.72476563 118.83564453 180.72476563 118.66796875 182.484375 C118.01880509 187.70066351 116.33251146 192.42858012 114.55273438 197.3515625 C113.19352604 201.26849498 113.19352604 201.26849498 113.63671875 205.29296875 C115.12153457 207.15217939 116.63703161 208.5823874 118.5 210.0625 C120.93664912 212.00872186 122.22262121 213.33393182 124 216 C123.78981951 221.3946325 121.44790633 225.22226672 118.6875 229.6875 C118.29626953 230.35072266 117.90503906 231.01394531 117.50195312 231.69726562 C113.29773398 238.62063148 113.29773398 238.62063148 110 240 C107.07415376 239.5622981 104.55784909 239.01844474 101.75 238.1875 C101.00492187 237.98318359 100.25984375 237.77886719 99.4921875 237.56835938 C97.65672792 237.06243141 95.82765878 236.53342134 94 236 C93.57589844 236.49628906 93.15179688 236.99257813 92.71484375 237.50390625 C82.50372578 249.33084948 82.50372578 249.33084948 77 253 C77.13277344 253.6290625 77.26554688 254.258125 77.40234375 254.90625 C78.50749182 260.26258811 79.39604212 265.56437906 80 271 C74.42977585 274.64165525 68.81090391 278.20797319 63.0625 281.5625 C62.18722656 282.07941406 61.31195313 282.59632813 60.41015625 283.12890625 C58 284 58 284 55.953125 283.4453125 C52.67128523 281.01675107 50.17482817 277.87507094 47.51171875 274.80078125 C45.06120319 272.65913291 45.06120319 272.65913291 41.65234375 273.1015625 C36.81179311 274.29228619 32.06825212 275.69564678 27.3046875 277.16015625 C24.35254396 277.91040549 22.01981792 278.17663086 19 278 C18.8453125 279.423125 18.8453125 279.423125 18.6875 280.875 C18.0089081 285.73491554 16.4914524 290.33803874 15 295 C12.03 295.33 9.06 295.66 6 296 C5.96261719 296.63164062 5.92523438 297.26328125 5.88671875 297.9140625 C5.3080375 305.78866613 3.78349214 313.31640179 2 321 C1.34 321 0.68 321 0 321 C-0.67466746 317.77245186 -1.33830569 314.54273065 -2 311.3125 C-2.19078125 310.40048828 -2.3815625 309.48847656 -2.578125 308.54882812 C-2.75859375 307.66259766 -2.9390625 306.77636719 -3.125 305.86328125 C-3.29257812 305.05157471 -3.46015625 304.23986816 -3.6328125 303.40356445 C-4.0153713 300.89938135 -4.06298509 298.52924498 -4 296 C-5.11375 296.020625 -6.2275 296.04125 -7.375 296.0625 C-11 296 -11 296 -13 295 C-13.80045663 292.30941402 -14.4954659 289.66781273 -15.125 286.9375 C-15.39763672 285.79958008 -15.39763672 285.79958008 -15.67578125 284.63867188 C-16.12456584 282.76086265 -16.56323336 280.88064085 -17 279 C-20.01905791 278.18080579 -23.04053079 277.37088233 -26.0625 276.5625 C-26.91005859 276.33240234 -27.75761719 276.10230469 -28.63085938 275.86523438 C-35.72756151 273.88368966 -35.72756151 273.88368966 -43 273 C-45.46155694 274.46280826 -45.46155694 274.46280826 -47.3125 276.75 C-47.96863281 277.46671875 -48.62476563 278.1834375 -49.30078125 278.921875 C-51.13221377 281.09294945 -51.13221377 281.09294945 -53 284 C-62.64799487 281.31121454 -70.28598433 276.31272865 -78 270 C-77.86722656 269.443125 -77.73445313 268.88625 -77.59765625 268.3125 C-77.42105469 267.549375 -77.24445313 266.78625 -77.0625 266 C-76.88847656 265.2575 -76.71445313 264.515 -76.53515625 263.75 C-76.35855469 262.8425 -76.18195313 261.935 -76 261 C-75.49146484 259.13021484 -75.49146484 259.13021484 -74.97265625 257.22265625 C-74.64628396 254.43687075 -74.83224349 253.28341194 -76.27661133 250.84326172 C-78.19293791 248.55587473 -80.22109239 246.50213631 -82.375 244.4375 C-83.41333984 243.33438477 -83.41333984 243.33438477 -84.47265625 242.20898438 C-88.31903171 238.32787263 -88.31903171 238.32787263 -93.36987305 236.72485352 C-95.66912158 236.96320044 -97.77201397 237.39268545 -100 238 C-101.40958984 238.26490234 -101.40958984 238.26490234 -102.84765625 238.53515625 C-103.57855469 238.70917969 -104.30945313 238.88320313 -105.0625 239.0625 C-106.19365234 239.32740234 -106.19365234 239.32740234 -107.34765625 239.59765625 C-107.89292969 239.73042969 -108.43820313 239.86320313 -109 240 C-114.03692311 233.264233 -119.36432491 226.06067448 -122 218 C-120.99491921 214.18639557 -118.16857765 212.30054213 -115.25 209.8125 C-112.08630716 206.87423154 -112.08630716 206.87423154 -110.71484375 202.9765625 C-111.27641468 200.55391768 -112.12912564 198.33116178 -113 196 C-113.76471367 193.15943244 -114.43912779 190.29796658 -115.125 187.4375 C-115.47973748 186.01902119 -115.83635519 184.60101058 -116.1953125 183.18359375 C-116.46085937 182.13300781 -116.72640625 181.08242188 -117 180 C-118.14339844 179.72285156 -119.28679687 179.44570313 -120.46484375 179.16015625 C-121.95577465 178.79445622 -123.44665761 178.42856071 -124.9375 178.0625 C-125.69224609 177.88009766 -126.44699219 177.69769531 -127.22460938 177.50976562 C-132.88671875 176.11328125 -132.88671875 176.11328125 -134 175 C-134.36760731 172.67182036 -134.70241581 170.3381615 -135 168 C-135.78238037 167.85900879 -136.56476074 167.71801758 -137.37084961 167.57275391 C-140.89477441 166.93251699 -144.41609521 166.27894893 -147.9375 165.625 C-149.16919922 165.40328125 -150.40089844 165.1815625 -151.66992188 164.953125 C-152.83974609 164.73398437 -154.00957031 164.51484375 -155.21484375 164.2890625 C-156.29886475 164.09006348 -157.38288574 163.89106445 -158.49975586 163.68603516 C-159.32483643 163.45964355 -160.14991699 163.23325195 -161 163 C-161.33 162.34 -161.66 161.68 -162 161 C-158.08470852 160.16011547 -154.16756028 159.32923187 -150.25 158.5 C-149.13882813 158.26152344 -148.02765625 158.02304687 -146.8828125 157.77734375 C-145.81289062 157.55175781 -144.74296875 157.32617188 -143.640625 157.09375 C-142.65610352 156.88427734 -141.67158203 156.67480469 -140.65722656 156.45898438 C-138 156 -138 156 -134 156 C-134 153.03 -134 150.06 -134 147 C-126.08 145.02 -126.08 145.02 -118 143 C-116.96744463 139.25287151 -115.94859147 135.50292046 -114.9375 131.75 C-114.64294922 130.68652344 -114.34839844 129.62304688 -114.04492188 128.52734375 C-113.77099609 127.50253906 -113.49707031 126.47773438 -113.21484375 125.421875 C-112.95823975 124.47924805 -112.70163574 123.53662109 -112.43725586 122.56542969 C-111.98618923 119.91897065 -112.0221575 118.47920371 -113 116 C-115.28589747 113.70135589 -117.70297287 111.62068325 -120.1640625 109.51171875 C-122 107 -122 107 -122.05078125 103.7265625 C-120.79247406 99.2640158 -118.91380715 95.65786058 -116.5625 91.6875 C-116.15451172 90.97271484 -115.74652344 90.25792969 -115.32617188 89.52148438 C-113.69902192 86.70516121 -112.31098742 84.31098742 -110 82 C-103.89111278 82.40238179 -97.70332314 83.782041 -92 86 C-91.73445313 85.41863281 -91.46890625 84.83726562 -91.1953125 84.23828125 C-87.47475499 77.27135494 -80.98858988 71.97752925 -75 67 C-75.2165625 66.20335937 -75.433125 65.40671875 -75.65625 64.5859375 C-75.9346875 63.52632812 -76.213125 62.46671875 -76.5 61.375 C-76.7784375 60.33085937 -77.056875 59.28671875 -77.34375 58.2109375 C-78.60238395 52.05262138 -78.60238395 52.05262138 -78 49 C-75.6845558 46.79044501 -73.03055322 45.30864921 -70.25 43.75 C-69.15558594 43.1003125 -69.15558594 43.1003125 -68.0390625 42.4375 C-66.04093908 41.26042366 -64.03541024 40.1112575 -62 39 C-61.31099609 38.62351318 -60.62199219 38.24702637 -59.91210938 37.85913086 C-57.17618307 36.62985039 -55.79498836 36.98008965 -53 38 C-50.70131117 40.29449415 -48.71119016 42.7355746 -46.671875 45.26171875 C-44.25577477 47.201835 -44.25577477 47.201835 -42.03344727 46.91503906 C-39.63871137 46.39864549 -37.33814339 45.73046502 -35 45 C-33.39539672 44.56709174 -31.78992486 44.13738987 -30.18359375 43.7109375 C-28.60088484 43.26803953 -27.01885049 42.82272393 -25.4375 42.375 C-24.61958984 42.14554688 -23.80167969 41.91609375 -22.95898438 41.6796875 C-20.9720488 41.1219512 -18.98593489 40.56128904 -17 40 C-16.80664062 39.01257813 -16.61328125 38.02515625 -16.4140625 37.0078125 C-16.15367187 35.72648437 -15.89328125 34.44515625 -15.625 33.125 C-15.36976563 31.84882813 -15.11453125 30.57265625 -14.8515625 29.2578125 C-14 26 -14 26 -12 24 C-9.31160615 23.73008094 -6.70858064 23.91262643 -4 24 C-2.27831944 16.0509642 -1.09136593 8.05753146 0 0 Z M1 30 C-0.45732921 34.87830094 -1.62663219 39.74830582 -2.5859375 44.75 C-2.7277243 45.47717224 -2.86951111 46.20434448 -3.01559448 46.95355225 C-3.47215984 49.3017186 -3.92384897 51.65078787 -4.375 54 C-4.68977512 55.62793037 -5.00455379 57.25586005 -5.31933594 58.88378906 C-7.38322578 69.59693289 -9.33046346 80.32559202 -11.15625 91.08203125 C-12.3439552 98.07217125 -13.66591754 105.03649384 -15 112 C-16.98 112.33 -18.96 112.66 -21 113 C-20.78085937 112.01128906 -20.56171875 111.02257812 -20.3359375 110.00390625 C-17.90530664 98.83607219 -15.78811985 87.61977309 -13.75 76.375 C-13.61358093 75.62364777 -13.47716187 74.87229553 -13.33660889 74.09817505 C-11.75409289 67.07749072 -11.75409289 67.07749072 -11 60 C-17.46691866 59.74489473 -22.53824658 60.3531271 -28.625 62.5 C-29.78950684 62.90375854 -29.78950684 62.90375854 -30.97753906 63.31567383 C-42.00187602 67.28366924 -51.66124558 72.66609441 -60.9375 79.8125 C-61.85257324 80.51475708 -61.85257324 80.51475708 -62.78613281 81.23120117 C-64.25428484 82.41259808 -65.63634473 83.69937964 -67 85 C-67 85.99 -67 86.98 -67 88 C-65.65958606 89.37273434 -65.65958606 89.37273434 -63.80859375 90.56640625 C-63.11781738 91.0473877 -62.42704102 91.52836914 -61.71533203 92.02392578 C-60.96364746 92.53165527 -60.21196289 93.03938477 -59.4375 93.5625 C-58.67550293 94.08827637 -57.91350586 94.61405273 -57.12841797 95.15576172 C-54.76075191 96.78337898 -52.3826236 98.39437233 -50 100 C-49.26442871 100.4964502 -48.52885742 100.99290039 -47.77099609 101.50439453 C-43.52957091 104.36015164 -39.26989388 107.18702529 -35 110 C-33.515 110.99 -33.515 110.99 -32 112 C-36.0903238 112.83099129 -39.96491376 113.17408822 -43.70117188 111.01855469 C-46.68112636 108.90069406 -49.4433192 106.56745603 -52.21484375 104.1875 C-54.80296588 101.6911623 -54.80296588 101.6911623 -58 102 C-55.36 104.97 -52.72 107.94 -50 111 C-50.99 111.495 -50.99 111.495 -52 112 C-52.46523063 113.89533342 -52.46523063 113.89533342 -52.625 116.0625 C-52.810625 118.0115625 -52.810625 118.0115625 -53 120 C-55.08188682 116.67395161 -57.16316463 113.347523 -59.24389648 110.02075195 C-60.29704631 108.33720402 -61.35066809 106.65395135 -62.40429688 104.97070312 C-63.07138672 103.90400391 -63.73847656 102.83730469 -64.42578125 101.73828125 C-65.03848877 100.75899658 -65.65119629 99.77971191 -66.2824707 98.77075195 C-67.87944318 96.19448462 -69.44788352 93.6034832 -71 91 C-78.94388858 93.64796286 -84.6881136 105.65776438 -88.3125 112.8125 C-92.12564504 120.58741565 -94.72015087 128.66338428 -97 137 C-97.20625 137.7321875 -97.4125 138.464375 -97.625 139.21875 C-98.23813939 142.1311621 -98.05697274 145.0374174 -98 148 C-92.82926718 148.25853664 -88.50548278 148.00786862 -83.5 146.65625 C-76.96015767 144.95800062 -70.37978651 143.60793054 -63.75 142.3125 C-62.04263672 141.97508789 -62.04263672 141.97508789 -60.30078125 141.63085938 C-57.53437156 141.08455158 -54.76745741 140.5409705 -52 140 C-52 142.31 -52 144.62 -52 147 C-52.97388672 146.96825684 -53.94777344 146.93651367 -54.95117188 146.90380859 C-59.3457274 146.90862537 -63.4827675 147.68424531 -67.78125 148.5390625 C-68.62072174 148.70058807 -69.46019348 148.86211365 -70.32510376 149.02853394 C-73.05129187 149.55458765 -75.77561296 150.08970445 -78.5 150.625 C-80.37993087 150.98952433 -82.25997751 151.35345211 -84.14013672 151.71679688 C-87.93494326 152.45121253 -91.7290159 153.1892483 -95.52246094 153.93066406 C-100.56828098 154.91671034 -105.6157677 155.89389993 -110.6640625 156.8671875 C-117.77714252 158.23915673 -124.88905372 159.61700619 -132 161 C-131.67 161.66 -131.34 162.32 -131 163 C-128.380416 163.75572127 -128.380416 163.75572127 -125.1418457 164.296875 C-123.88576004 164.53051758 -122.62967438 164.76416016 -121.33552551 165.00488281 C-119.94899072 165.25351538 -118.56240798 165.5018807 -117.17578125 165.75 C-115.75330725 166.01070679 -114.33096082 166.27211053 -112.90873718 166.53417969 C-109.91430484 167.08411241 -106.91890303 167.62828158 -103.92260742 168.16796875 C-100.12124721 168.85272454 -96.32174937 169.54716981 -92.52287006 170.24554443 C-88.86615887 170.91727627 -85.2084908 171.58372999 -81.55078125 172.25 C-80.86986231 172.37451538 -80.18894337 172.49903076 -79.48739052 172.62731934 C-70.34715967 174.29435234 -61.20642006 175.75278485 -52 177 C-52 178.98 -52 180.96 -52 183 C-53.87703613 182.63648438 -53.87703613 182.63648438 -55.79199219 182.265625 C-60.4354824 181.36735867 -65.0798983 180.4739614 -69.72460938 179.58203125 C-71.73463103 179.1953389 -73.74439931 178.80732705 -75.75390625 178.41796875 C-78.64257233 177.85850378 -81.53211676 177.30379233 -84.421875 176.75 C-85.31992859 176.57500977 -86.21798218 176.40001953 -87.14324951 176.21972656 C-87.98381897 176.05956055 -88.82438843 175.89939453 -89.69042969 175.734375 C-90.42767273 175.59225586 -91.16491577 175.45013672 -91.92449951 175.30371094 C-94.31004099 174.9034737 -94.31004099 174.9034737 -98 175 C-97.91513606 192.65169912 -87.01168335 213.41290667 -75 226 C-73.35668288 227.36200749 -71.69512484 228.7030392 -70 230 C-68.10384301 227.00020446 -66.20813486 224.00012551 -64.3125 221 C-63.78205078 220.16082031 -63.25160156 219.32164062 -62.70507812 218.45703125 C-59.45556759 213.3136342 -56.22016475 208.16182253 -53 203 C-52.53575642 209.90973569 -53.49365293 213.97346598 -57 220 C-56.38125 219.690625 -55.7625 219.38125 -55.125 219.0625 C-53.75 218.375 -52.375 217.6875 -51 217 C-51.020625 217.804375 -51.04125 218.60875 -51.0625 219.4375 C-51.29633621 221.93354885 -51.29633621 221.93354885 -50 223 C-51.62421875 224.03060547 -51.62421875 224.03060547 -53.28125 225.08203125 C-54.68785635 225.99163669 -56.09408712 226.9018231 -57.5 227.8125 C-58.21542969 228.26431641 -58.93085938 228.71613281 -59.66796875 229.18164062 C-60.34472656 229.62314453 -61.02148438 230.06464844 -61.71875 230.51953125 C-62.34716797 230.92276611 -62.97558594 231.32600098 -63.62304688 231.74145508 C-64.07744141 232.1567749 -64.53183594 232.57209473 -65 233 C-65.34268235 236.03106674 -65.34268235 236.03106674 -63.375 237.7265625 C-49.96626478 248.44472914 -29.86293441 261.1164334 -12 260 C-11.86657728 255.04390186 -12.31296624 250.6058097 -13.3125 245.75390625 C-13.5122644 244.76994118 -13.5122644 244.76994118 -13.71606445 243.76609802 C-14.13766945 241.69686526 -14.56865529 239.62972193 -15 237.5625 C-15.28968825 236.14921666 -15.57875657 234.7358061 -15.8671875 233.32226562 C-16.57097041 229.88001167 -17.28317258 226.43956417 -18 223 C-16.02 223 -14.04 223 -12 223 C-11.88519287 223.72026367 -11.77038574 224.44052734 -11.65209961 225.18261719 C-9.22821669 240.28718509 -6.64436227 255.35693928 -3.775177 270.38366699 C-3.46643024 272.00443987 -3.16066913 273.62578431 -2.85787964 275.24768066 C-2.43101639 277.52759479 -1.9926629 279.80498676 -1.55078125 282.08203125 C-1.42383881 282.76918716 -1.29689636 283.45634308 -1.16610718 284.1643219 C-0.84330958 285.79069496 -0.43013208 287.39866492 0 289 C0.66 289.33 1.32 289.66 2 290 C2.1141777 289.39152725 2.22835541 288.7830545 2.34599304 288.15614319 C3.56149078 281.68017758 4.77909931 275.20461113 5.99780273 268.72924805 C6.44916374 266.32960521 6.90002973 263.9298692 7.3503418 261.5300293 C8.00691656 258.03147615 8.66509935 254.53323085 9.32421875 251.03515625 C9.54230194 249.87658112 9.76038513 248.71800598 9.9850769 247.52432251 C11.10222208 241.6227089 12.24886574 235.72885016 13.44775391 229.84326172 C13.79614067 228.13099648 13.79614067 228.13099648 14.15156555 226.38414001 C14.59393647 224.22220158 15.04063014 222.06114158 15.49235535 219.90113831 C15.69057388 218.93401413 15.88879242 217.96688995 16.09301758 216.97045898 C16.26867752 216.12789047 16.44433746 215.28532196 16.62532043 214.41722107 C17.01441817 211.90698209 17.06566409 209.53608308 17 207 C17.66 207 18.32 207 19 207 C19.34274406 208.66475686 19.67364302 210.33195323 20 212 C20.30925415 213.31871094 20.30925415 213.31871094 20.62475586 214.6640625 C21.0832939 218.74048653 20.41687392 222.28632768 19.56640625 226.25 C19.40961899 227.02633789 19.25283173 227.80267578 19.09129333 228.60253906 C18.59165913 231.07052085 18.07814504 233.53531795 17.5625 236 C17.05210028 238.46496304 16.54487699 240.93045967 16.04441833 243.39746094 C15.73342318 244.92802529 15.41656095 246.45741315 15.09291077 247.98535156 C14.26021149 252.0562868 13.83630262 255.84592388 14 260 C31.59736486 258.1507194 47.6137944 250.74898406 62 240.6875 C62.60602051 240.26702393 63.21204102 239.84654785 63.83642578 239.41333008 C65.69053475 238.09878648 65.69053475 238.09878648 68 236 C68 235.01 68 234.02 68 233 C65.73469504 231.28771335 63.53492555 229.7909964 61.125 228.3125 C60.47402344 227.89677734 59.82304687 227.48105469 59.15234375 227.05273438 C55.83152991 224.77303341 55.83152991 224.77303341 52 224 C52 223.34 52 222.68 52 222 C55.3 222 58.6 222 62 222 C62.66 220.35 63.32 218.7 64 217 C64.66 217 65.32 217 66 217 C66.2475 217.845625 66.495 218.69125 66.75 219.5625 C68.13973627 223.38427474 69.91120838 226.51868063 72 230 C76.16291937 228.46528318 78.31531684 225.4431962 80.875 222 C81.31553711 221.41259033 81.75607422 220.82518066 82.20996094 220.2199707 C91.48908928 207.69382923 100.6548535 191.04391084 100 175 C97.72869344 175.30904171 95.45796695 175.62234907 93.1875 175.9375 C91.92292969 176.11152344 90.65835938 176.28554688 89.35546875 176.46484375 C86.01678297 176.90392455 86.01678297 176.90392455 83 178 C83.66 175.69 84.32 173.38 85 171 C85.5669458 170.93006836 86.1338916 170.86013672 86.71801758 170.78808594 C97.80037191 169.40097971 108.75701758 167.82721612 119.65551758 165.35839844 C124.4293309 164.28294077 129.13438369 163.53818329 134 163 C134 162.34 134 161.68 134 161 C128.94722783 159.99827536 123.89351388 159.00150005 118.83886719 158.00927734 C117.11984984 157.67111531 115.40109661 157.33160779 113.68261719 156.99072266 C111.21097093 156.5006795 108.73841199 156.01549967 106.265625 155.53125 C105.49881409 155.37813354 104.73200317 155.22501709 103.94195557 155.06726074 C100.53636264 154.40478442 97.4853151 154 94 154 C94.6875 151.5625 94.6875 151.5625 96 149 C98.625 148.1875 98.625 148.1875 101 148 C100.93619141 147.42386963 100.87238281 146.84773926 100.80664062 146.25415039 C100.31818447 138.23506417 102.98419588 132.51661911 106.5 125.4375 C107.53214339 123.2907939 108.56344296 121.14368181 109.59375 118.99609375 C110.05458984 118.05950928 110.51542969 117.1229248 110.99023438 116.15795898 C112.07063701 114.24612951 112.07063701 114.24612951 112 113 C104.74 113 97.48 113 90 113 C89.34 111.35 88.68 109.7 88 108 C84.12367767 101.43469732 80.29906814 95.4093477 74 91 C69.04617196 97.72909065 64.66822558 104.72904547 60.3527832 111.87670898 C56.51713336 118.21023613 52.52604693 124.43070153 48.44042969 130.60571289 C46.61767642 133.38188047 45.05528937 135.83413188 44 139 C46.64 139.33 49.28 139.66 52 140 C51.34 141.65 50.68 143.3 50 145 C48.20793453 144.85915204 46.41635083 144.71216299 44.625 144.5625 C43.12839844 144.44068359 43.12839844 144.44068359 41.6015625 144.31640625 C39 144 39 144 37 143 C37.51725401 138.26149775 38.78695815 135.23737116 41.38671875 131.26171875 C42.4240918 129.65973633 42.4240918 129.65973633 43.48242188 128.02539062 C44.21724688 126.91262764 44.95227399 125.79999808 45.6875 124.6875 C46.39583984 123.59759766 47.10417969 122.50769531 47.83398438 121.38476562 C51.8443037 115.2267222 55.9094456 109.10499828 60 103 C59.67 102.34 59.34 101.68 59 101 C58.505 101.680625 58.01 102.36125 57.5 103.0625 C55.58554986 105.31197891 53.91071754 107.00052246 51.6875 108.875 C46.53058693 113.25886538 41.84244427 118.10732388 37.10424805 122.93310547 C36.15932495 123.89047607 36.15932495 123.89047607 35.1953125 124.8671875 C34.62828613 125.44581543 34.06125977 126.02444336 33.47705078 126.62060547 C32 128 32 128 30 129 C29.814375 128.1646875 29.814375 128.1646875 29.625 127.3125 C29.0322881 124.92247304 29.0322881 124.92247304 27.9375 122.4375 C27 120 27 120 27 117 C28.765625 115.45703125 28.765625 115.45703125 31.25 113.8125 C32.16144775 113.20132324 33.07289551 112.59014648 34.01196289 111.96044922 C34.99801514 111.31350098 35.98406738 110.66655273 37 110 C39.01962241 108.64857372 41.03915294 107.29701013 43.05859375 105.9453125 C44.06390137 105.27790039 45.06920898 104.61048828 46.10498047 103.92285156 C50.10748261 101.26441786 54.09055904 98.57881408 58.0625 95.875 C59.01479492 95.23884766 59.01479492 95.23884766 59.98632812 94.58984375 C63.76603889 92.02078953 66.88509473 89.30921883 70 86 C57.4842341 73.54191044 35.35376833 59.92293089 16.875 59.8125 C15.92625 59.874375 14.9775 59.93625 14 60 C14.56230366 69.15197682 16.2064824 78.02731196 18 87 C18.20737793 88.04381836 18.41475586 89.08763672 18.62841797 90.16308594 C20.0752815 97.44414361 21.53326798 104.72292005 23 112 C21.02 112 19.04 112 17 112 C16.82984375 110.87207031 16.6596875 109.74414062 16.484375 108.58203125 C16.23977902 106.99215738 15.99497553 105.40231543 15.75 103.8125 C15.64042969 103.08224609 15.53085937 102.35199219 15.41796875 101.59960938 C14.02882447 92.64328438 12.26260274 83.75563549 10.54919434 74.85708618 C9.64627948 70.15983171 8.75327652 65.46069522 7.859375 60.76171875 C7.50786103 58.91600638 7.15629869 57.07030322 6.8046875 55.22460938 C5.203125 46.81640625 3.6015625 38.40820312 2 30 C1.67 30 1.34 30 1 30 Z " fill="#1D3C63" transform="translate(319,107)"/>
<path d="M0 0 C10.56 0 21.12 0 32 0 C33.7325 4.0425 35.465 8.085 37.25 12.25 C37.82886963 13.599729 38.40773926 14.94945801 39.00415039 16.34008789 C41.5375052 22.24747864 44.06832437 28.15588647 46.58657837 34.06973267 C47.68742979 36.65462145 48.79000118 39.23877493 49.8927002 41.82287598 C50.42261786 43.06607862 50.95167069 44.30965025 51.4798584 45.55358887 C52.21748252 47.29055215 52.95827124 49.02617054 53.69921875 50.76171875 C54.12033936 51.75131592 54.54145996 52.74091309 54.9753418 53.76049805 C55.80782404 55.92409152 55.80782404 55.92409152 57 57 C57.43755615 56.01418945 57.8751123 55.02837891 58.32592773 54.01269531 C63.21187898 43.00605732 68.10325426 32.00183989 73 21 C73.53625 19.7948877 74.0725 18.58977539 74.625 17.34814453 C75.89303609 14.50166767 77.16426934 11.6566562 78.4375 8.8125 C78.97491821 7.6054541 78.97491821 7.6054541 79.52319336 6.37402344 C81.88373495 1.11626505 81.88373495 1.11626505 83 0 C85.21855264 -0.08783542 87.43988496 -0.10694609 89.66015625 -0.09765625 C90.65685585 -0.09553383 90.65685585 -0.09553383 91.6736908 -0.09336853 C93.80333899 -0.08775518 95.93288339 -0.07520054 98.0625 -0.0625 C99.50325369 -0.05748671 100.94400903 -0.05292351 102.38476562 -0.04882812 C105.92321102 -0.03778145 109.46159539 -0.02050792 113 0 C110.41725412 8.60915293 106.6441838 16.61563509 102.875 24.75 C102.16896695 26.28323247 101.46340988 27.8166842 100.75830078 29.3503418 C98.89405938 33.40259409 97.02457412 37.45240424 95.15380859 41.50164795 C92.08793114 48.14021978 89.03052021 54.78269145 85.97418213 61.42565918 C84.90506894 63.74720622 83.83334265 66.06753203 82.76123047 68.38769531 C78.69605072 77.20147105 74.78297299 86.06110588 71 95 C61.76 95 52.52 95 43 95 C39.08746261 87.34141618 35.34628304 79.65495967 31.84375 71.80078125 C31.04923364 70.02703576 30.25438227 68.25344031 29.45922852 66.47998047 C29.05334503 65.57431335 28.64746155 64.66864624 28.22927856 63.73553467 C26.24810376 59.32679239 24.24695839 54.92717583 22.24609375 50.52734375 C21.44587054 48.76501619 20.64574067 47.00264623 19.84570312 45.24023438 C18.64070461 42.58591148 17.43496704 39.9319381 16.22680664 37.27905273 C10.60661422 24.93460022 5.21318974 12.52240422 0 0 Z " fill="#1C3B63" transform="translate(306,227)"/>
<path d="M0 0 C9.24 0 18.48 0 28 0 C28 31.35 28 62.7 28 95 C18.76 95 9.52 95 0 95 C0 63.65 0 32.3 0 0 Z " fill="#1A3A63" transform="translate(275,227)"/>
<path d="M0 0 C3.27472018 3.27472018 4.75091774 6.47498102 6.546875 10.640625 C6.88116516 11.39986267 7.21545532 12.15910034 7.55987549 12.94134521 C8.62986562 15.37472493 9.69030471 17.81212177 10.75 20.25 C11.79321287 22.63504057 12.83844024 25.01917084 13.88601685 27.40229797 C14.57719099 28.97922288 15.26377322 30.55816834 15.94577026 32.13908386 C17.55923814 35.85525176 19.22456848 39.49689161 21.13330078 43.0715332 C25.56867619 51.47466443 26.75359328 57.26043424 24.375 66.6875 C23.85257564 69.11972962 23.33045611 71.55202473 22.80859375 73.984375 C22.36749268 75.91313477 22.36749268 75.91313477 21.91748047 77.88085938 C20.92462448 82.26226404 20.06464131 86.665572 19.22265625 91.078125 C19.07562759 91.84842545 18.92859894 92.61872589 18.77711487 93.41236877 C18.47940035 94.97449209 18.18198146 96.53667178 17.88485718 98.09890747 C17.15264286 101.92661165 16.40007081 105.75028919 15.6484375 109.57421875 C13.7257544 119.37524954 11.85454879 129.18586601 10 139 C9.34 138.67 8.68 138.34 8 138 C7.30392456 135.46351624 7.30392456 135.46351624 6.67138672 132.04321289 C6.43128876 130.76841568 6.1911908 129.49361847 5.94381714 128.18019104 C5.6888688 126.77772277 5.43416482 125.37521006 5.1796875 123.97265625 C4.91421422 122.54384859 4.64802049 121.11517462 4.38113403 119.68663025 C3.82288419 116.68892287 3.27027816 113.69025154 2.72216797 110.69067383 C2.01873918 106.84113488 1.30626894 102.99334642 0.59019279 99.14614201 C-0.09109263 95.48466101 -0.7686191 91.82248834 -1.4453125 88.16015625 C-1.57515659 87.45833788 -1.70500069 86.75651951 -1.83877945 86.03343391 C-2.20461217 84.05139082 -2.56746714 82.06879881 -2.93017578 80.08618164 C-3.24089523 78.3919381 -3.24089523 78.3919381 -3.55789185 76.66346741 C-4 74 -4 74 -4 72 C-5.98 72 -7.96 72 -10 72 C-10 71.67 -10 71.34 -10 71 C-6.7 71 -3.4 71 0 71 C0 47.57 0 24.14 0 0 Z " fill="#BABBBC" transform="translate(311,258)"/>
<path d="M0 0 C0.33 0 0.66 0 1 0 C4.89447949 20.32207435 8.77681479 40.64638144 12.53683472 60.99383545 C12.84542143 62.66358294 13.15460449 64.33322034 13.46438599 66.00274658 C13.89483747 68.32439962 14.32284768 70.646488 14.75 72.96875 C14.877733 73.65637421 15.005466 74.34399841 15.1370697 75.05245972 C16 79.77008498 16 79.77008498 16 82 C17.98 82 19.96 82 22 82 C22 82.33 22 82.66 22 83 C9.46 83 -3.08 83 -16 83 C-13.18950462 67.07385951 -10.32818563 51.15862455 -7.41259766 35.25164795 C-7.1346778 33.73497021 -6.85701362 32.21824561 -6.57958984 30.70147705 C-5.75276754 26.18149129 -4.92164705 21.66233577 -4.08413696 17.14431763 C-3.82040538 15.71851937 -3.55800794 14.29247366 -3.29696655 12.86618042 C-2.93479214 10.8892645 -2.56714828 8.91335291 -2.19921875 6.9375 C-1.88730591 5.24947266 -1.88730591 5.24947266 -1.5690918 3.52734375 C-1 1 -1 1 0 0 Z " fill="#B9BCBD" transform="translate(320,137)"/>
<path d="M0 0 C0.33 0 0.66 0 1 0 C1 14.52 1 29.04 1 44 C0.34 43.67 -0.32 43.34 -1 43 C-0.67 41.02 -0.34 39.04 0 37 C-0.7017334 36.91363281 -1.4034668 36.82726562 -2.12646484 36.73828125 C-15.05220946 35.02350119 -27.82341927 32.4521829 -40.625 30 C-44.18772346 29.31958854 -47.75062302 28.64012638 -51.31381226 27.9621582 C-53.51579077 27.54298501 -55.71749299 27.12235654 -57.91885376 26.69995117 C-58.93385956 26.5063501 -59.94886536 26.31274902 -60.99462891 26.11328125 C-62.46745331 25.83218506 -62.46745331 25.83218506 -63.97003174 25.54541016 C-68.20153248 24.78371786 -72.45266943 24.15922187 -76.70883179 23.55151367 C-77.4649173 23.36951416 -78.22100281 23.18751465 -79 23 C-79.33 22.34 -79.66 21.68 -80 21 C-67.23855495 18.49479131 -54.47449892 16.00324041 -41.7076416 13.52575684 C-39.1483445 13.02880482 -36.58929213 12.53060982 -34.03027344 12.03222656 C-30.32735778 11.3119243 -26.62314332 10.59872829 -22.91772461 9.89141846 C-21.56686595 9.6325725 -20.21643177 9.37150035 -18.86645508 9.10809326 C-16.99288509 8.74300626 -15.11756536 8.38693371 -13.2421875 8.03125 C-12.1991748 7.83080078 -11.15616211 7.63035156 -10.08154297 7.42382812 C-6.68848879 6.95715549 -3.4208018 6.92910255 0 7 C0 4.69 0 2.38 0 0 Z " fill="#B9BCBD" transform="translate(267,247)"/>
<path d="M0 0 C7.05375 -0.061875 7.05375 -0.061875 14.25 -0.125 C15.72758789 -0.14320801 17.20517578 -0.16141602 18.72753906 -0.18017578 C20.4788916 -0.18766846 20.4788916 -0.18766846 22.265625 -0.1953125 C24.05661621 -0.21102295 24.05661621 -0.21102295 25.88378906 -0.22705078 C28.91101102 -0.00648384 30.5264614 0.29403799 33 2 C35.4680704 5.70210559 35.33179675 8.59112254 35.3125 12.875 C35.32861328 13.58269531 35.34472656 14.29039062 35.36132812 15.01953125 C35.36551358 19.51470654 34.85795983 22.47942185 32 26 C31.01 26.33 30.02 26.66 29 27 C29.5053125 27.97582031 30.010625 28.95164062 30.53125 29.95703125 C31.18781656 31.2420258 31.8440492 32.52719101 32.5 33.8125 C32.83386719 34.45509766 33.16773438 35.09769531 33.51171875 35.75976562 C35.00239084 38.69547699 36 40.66126517 36 44 C32.7 44 29.4 44 26 44 C25.50371094 43.00097656 25.00742187 42.00195312 24.49609375 40.97265625 C23.81121711 39.66857607 23.12494534 38.36522792 22.4375 37.0625 C22.11458984 36.40314453 21.79167969 35.74378906 21.45898438 35.06445312 C20.33836317 32.86044622 20.33836317 32.86044622 18 30 C15.69 29.67 13.38 29.34 11 29 C11 33.95 11 38.9 11 44 C7.37 44 3.74 44 0 44 C0 29.48 0 14.96 0 0 Z " fill="#254165" transform="translate(459,444)"/>
<path d="M0 0 C3.96 0 7.92 0 12 0 C14.99936691 3.23423797 16.60063857 5.40450138 18.5625 9.1875 C19.05556641 10.05181641 19.54863281 10.91613281 20.05664062 11.80664062 C20.97414375 13.42248621 21.87372789 15.04874828 22.74829102 16.68823242 C24.09069001 19.16749438 25.5494527 21.58242116 27 24 C27.33 16.08 27.66 8.16 28 0 C31.3 0 34.6 0 38 0 C38 14.19 38 28.38 38 43 C28 43 28 43 25.58984375 41.0859375 C25.04457031 40.19132812 24.49929688 39.29671875 23.9375 38.375 C23.30714844 37.38628906 22.67679687 36.39757812 22.02734375 35.37890625 C21.35832031 34.26386719 20.68929688 33.14882813 20 32 C18.79252504 30.1217594 17.57036833 28.25369738 16.34594727 26.38647461 C14.541242 23.60559828 12.77443866 20.80028601 11 18 C10.67 26.25 10.34 34.5 10 43 C6.7 43 3.4 43 0 43 C0 28.81 0 14.62 0 0 Z " fill="#1D3A60" transform="translate(334,444)"/>
<path d="M0 0 C11 0 11 0 13.62573242 2.11132812 C14.19654541 3.07490234 14.7673584 4.03847656 15.35546875 5.03125 C15.99677734 6.06894531 16.63808594 7.10664063 17.29882812 8.17578125 C17.92208984 9.27277344 18.54535156 10.36976563 19.1875 11.5 C19.85330078 12.59699219 20.51910156 13.69398438 21.20507812 14.82421875 C22.83919757 17.52815739 24.42450525 20.26148821 26 23 C26.33 15.41 26.66 7.82 27 0 C30.3 0 33.6 0 37 0 C37 14.19 37 28.38 37 43 C27 43 27 43 24.80859375 41.3046875 C24.35613281 40.50289063 23.90367187 39.70109375 23.4375 38.875 C22.89867187 37.9778125 22.35984375 37.080625 21.8046875 36.15625 C21.20914063 35.1146875 20.61359375 34.073125 20 33 C18.82250483 31.14193423 17.62316351 29.29949398 16.41845703 27.45898438 C14.59225101 24.65226946 12.79953664 21.82388826 11 19 C10.67 27.25 10.34 35.5 10 44 C6.7 44 3.4 44 0 44 C0 29.48 0 14.96 0 0 Z " fill="#1E3C60" transform="translate(227,444)"/>
<path d="M0 0 C1.09376953 -0.02900391 2.18753906 -0.05800781 3.31445312 -0.08789062 C11.29876299 -0.15114232 11.29876299 -0.15114232 15.4296875 2.00390625 C18.48208487 6.01272146 17.50948686 9.41829967 17.1875 14.3125 C13.8875 14.3125 10.5875 14.3125 7.1875 14.3125 C6.8575 12.6625 6.5275 11.0125 6.1875 9.3125 C2.2275 9.3125 -1.7325 9.3125 -5.8125 9.3125 C-5.8125 17.5625 -5.8125 25.8125 -5.8125 34.3125 C-1.8525 34.3125 2.1075 34.3125 6.1875 34.3125 C6.5175 32.3325 6.8475 30.3525 7.1875 28.3125 C4.5475 28.3125 1.9075 28.3125 -0.8125 28.3125 C-0.8125 25.3425 -0.8125 22.3725 -0.8125 19.3125 C5.1275 19.3125 11.0675 19.3125 17.1875 19.3125 C17.29546306 22.5633878 17.37479295 25.81069179 17.4375 29.0625 C17.47101563 29.98289062 17.50453125 30.90328125 17.5390625 31.8515625 C17.63766563 38.6551785 17.63766563 38.6551785 15.421875 41.890625 C10.61853522 44.94729577 5.33276879 44.56188717 -0.1875 44.625 C-1.44433594 44.66850586 -1.44433594 44.66850586 -2.7265625 44.71289062 C-8.24254795 44.76926469 -11.51400999 44.11193931 -15.8125 40.3125 C-19.01268745 35.43730034 -18.18448007 29.56682955 -18.18310547 23.95019531 C-18.18747051 21.9510049 -18.2244853 19.95197343 -18.26171875 17.953125 C-18.26558594 16.68210937 -18.26945312 15.41109375 -18.2734375 14.1015625 C-18.28165527 12.94350098 -18.28987305 11.78543945 -18.29833984 10.59228516 C-17.70885489 6.6128174 -16.29638237 4.43861611 -13.8125 1.3125 C-9.72184806 -0.73282597 -4.49610174 0.0393245 0 0 Z " fill="#203D61" transform="translate(289.8125,443.6875)"/>
<path d="M0 0 C10.89 0 21.78 0 33 0 C33 3.3 33 6.6 33 10 C25.74 10 18.48 10 11 10 C11 12.64 11 15.28 11 18 C16.61 18 22.22 18 28 18 C28 20.64 28 23.28 28 26 C22.06 26 16.12 26 10 26 C10 29.3 10 32.6 10 36 C17.26 36 24.52 36 32 36 C32 38.97 32 41.94 32 45 C21.44 45 10.88 45 0 45 C0 30.15 0 15.3 0 0 Z " fill="#274469" transform="translate(420,443)"/>
<path d="M0 0 C1.03253906 -0.01933594 2.06507813 -0.03867187 3.12890625 -0.05859375 C7.98177013 -0.02728495 10.66712025 0.03415368 14.69921875 2.89453125 C17.33877123 6.89680279 16.89635078 8.94806078 16.5 13.625 C13.2 13.625 9.9 13.625 6.5 13.625 C6.5 11.975 6.5 10.325 6.5 8.625 C0.56 9.12 0.56 9.12 -5.5 9.625 C-5.5 11.605 -5.5 13.585 -5.5 15.625 C-4.33082031 15.87894531 -3.16164063 16.13289063 -1.95703125 16.39453125 C-0.40874963 16.74172167 1.13942175 17.08940391 2.6875 17.4375 C3.45642578 17.60314453 4.22535156 17.76878906 5.01757812 17.93945312 C9.3253416 18.91933065 12.88395808 19.94983112 16.5 22.625 C17.96024369 25.54548739 17.78646553 28.18556084 17.875 31.4375 C17.92398438 32.66082031 17.97296875 33.88414062 18.0234375 35.14453125 C17.5 38.625 17.5 38.625 15.76171875 41.53515625 C10.69135147 44.78383469 5.83122952 44.35063283 -0.0625 44.25 C-1.76696289 44.27900391 -1.76696289 44.27900391 -3.50585938 44.30859375 C-11.72717917 44.26009039 -11.72717917 44.26009039 -15.26171875 41.35546875 C-17.05672297 37.39739951 -16.79144881 34.92386995 -16.5 30.625 C-13.2 30.625 -9.9 30.625 -6.5 30.625 C-6.17 31.945 -5.84 33.265 -5.5 34.625 C-1.21 34.955 3.08 35.285 7.5 35.625 C7.5 33.315 7.5 31.005 7.5 28.625 C6.25863281 28.38265625 5.01726563 28.1403125 3.73828125 27.890625 C2.09620128 27.55282569 0.4542824 27.21424262 -1.1875 26.875 C-2.41243164 26.63910156 -2.41243164 26.63910156 -3.66210938 26.3984375 C-8.54973467 25.36946375 -11.86271735 24.26945678 -15.5 20.625 C-16.89686413 17.83127174 -16.78325772 15.42820908 -16.875 12.3125 C-16.94847656 10.61673828 -16.94847656 10.61673828 -17.0234375 8.88671875 C-16.5 5.625 -16.5 5.625 -14.6953125 2.74609375 C-9.91576686 -0.42663643 -5.6128503 -0.10510956 0 0 Z " fill="#1E3A5E" transform="translate(517.5,443.375)"/>
<path d="M0 0 C10.56 0 21.12 0 32 0 C32 2.97 32 5.94 32 9 C24.74 9 17.48 9 10 9 C10 11.64 10 14.28 10 17 C15.94 17 21.88 17 28 17 C28 19.64 28 22.28 28 25 C22.06 25 16.12 25 10 25 C10 28.3 10 31.6 10 35 C17.26 35 24.52 35 32 35 C32 37.97 32 40.94 32 44 C21.44 44 10.88 44 0 44 C0 29.48 0 14.96 0 0 Z " fill="#224065" transform="translate(381,444)"/>
<path d="M0 0 C0.66 0 1.32 0 2 0 C3.53756684 2.03519022 4.90168704 4.03252395 6.25 6.1875 C6.63929688 6.76564453 7.02859375 7.34378906 7.4296875 7.93945312 C9.18758684 10.73754829 10.14805191 12.31217551 9.4375 15.61328125 C7.92802547 18.11950119 6.39014176 20.5767275 4.75 23 C-1.76605396 33.12703386 -5.79161426 43.16382729 -8 55 C-13.83799592 56.69832609 -18.93107371 57.25287193 -25 57 C-25.79263351 38.15018425 -15.40382296 19.30269392 -4 5 C-3.30390625 4.07574219 -2.6078125 3.15148437 -1.890625 2.19921875 C-1.26671875 1.47347656 -0.6428125 0.74773437 0 0 Z " fill="#B9BBBC" transform="translate(246,198)"/>
<path d="M0 0 C-0.99 6.27 -1.98 12.54 -3 19 C-3.495 18.01 -3.495 18.01 -4 17 C-18.15372778 21.29329743 -32.27323599 26.27323599 -43 37 C-47.62 33.7 -52.24 30.4 -57 27 C-45.45429735 15.45429735 -32.99211775 7.80485711 -17.625 2.5 C-16.90054688 2.24460449 -16.17609375 1.98920898 -15.4296875 1.72607422 C-9.79980781 -0.10132514 -6.3200282 0 0 0 Z " fill="#BABCBE" transform="translate(308,167)"/>
<path d="M0 0 C15.34150728 -1.42711696 34.95869502 9.06368561 47 18 C50.09591489 20.57087669 53.0836035 23.22762308 56 26 C51.85989729 30.54075781 47.17609824 33.71842138 42 37 C41.13375 36.175 40.2675 35.35 39.375 34.5 C28.83159553 25.45972855 16.14233419 20.79727279 3 17 C2.67 17.66 2.34 18.32 2 19 C1.66089006 16.95928485 1.32897296 14.91737379 1 12.875 C0.814375 11.73804688 0.62875 10.60109375 0.4375 9.4296875 C0.03043951 6.23862398 -0.07809902 3.21182209 0 0 Z " fill="#BCBEBE" transform="translate(333,167)"/>
<path d="M0 0 C10.23 0 20.46 0 31 0 C31 2.64 31 5.28 31 8 C24.07 8 17.14 8 10 8 C10 10.97 10 13.94 10 17 C15.61 17 21.22 17 27 17 C27 19.64 27 22.28 27 25 C21.39 25 15.78 25 10 25 C10 28.3 10 31.6 10 35 C16.93 35 23.86 35 31 35 C31 37.64 31 40.28 31 43 C20.77 43 10.54 43 0 43 C0 28.81 0 14.62 0 0 Z " fill="#18365C" transform="translate(188,444)"/>
<path d="M0 0 C6.70778622 0.77397533 13.34574301 1.85768588 20 3 C19.01 3.495 19.01 3.495 18 4 C21.49178668 17.62256251 27.07724643 29.8705224 37 40 C34.36 44.62 31.72 49.24 29 54 C26 54 26 54 24.01953125 52.3046875 C11.18186341 38.17189211 1.16486591 19.24037135 0 0 Z " fill="#B9BBBB" transform="translate(221,282)"/>
<path d="M0 0 C1.75471386 0.90761062 3.50359264 1.82650711 5.25 2.75 C6.71179688 3.51570313 6.71179688 3.51570313 8.203125 4.296875 C10.91493199 5.94819881 12.86796403 7.66491299 15 10 C-0.00587054 22.34884456 -19.82504173 35 -40 35 C-39.43708547 25.83808082 -37.79203512 16.98271694 -36 8 C-35.67 8 -35.34 8 -35 8 C-35 10.97 -35 13.94 -35 17 C-22.16429989 12.78654192 -11.14966044 7.64328447 0 0 Z " fill="#B8BABB" transform="translate(373,332)"/>
<path d="M0 0 C3.96 0 7.92 0 12 0 C15.5002075 9.20424935 18.29401053 18.54012696 21 28 C23.26092418 24.60861373 24.2846874 21.23335704 25.4375 17.375 C25.87696055 15.9346993 26.31706148 14.49459383 26.7578125 13.0546875 C26.96954102 12.35956055 27.18126953 11.66443359 27.39941406 10.94824219 C28.53156699 7.27564855 29.76530247 3.6391085 31 0 C34.63 0 38.26 0 42 0 C40.75056411 6.01647449 39.21158393 11.74049015 37.1796875 17.53515625 C36.91616486 18.29928329 36.65264221 19.06341034 36.38113403 19.85069275 C35.55036362 22.25625285 34.71281809 24.65938662 33.875 27.0625 C33.30553688 28.70752565 32.73652246 30.3527067 32.16796875 31.99804688 C30.78381833 36.00051032 29.39359276 40.00081494 28 44 C23.71 44 19.42 44 15 44 C4.44191344 13.4738041 4.44191344 13.4738041 0 0 Z " fill="#233F61" transform="translate(121,444)"/>
<path d="M0 0 C0.32017301 5.7707373 -0.72693632 10.25657375 -2.625 15.6875 C-2.89715332 16.47842041 -3.16930664 17.26934082 -3.44970703 18.08422852 C-8.39779028 32.10284707 -15.84680077 44.12157225 -26 55 C-26.66 55 -27.32 55 -28 55 C-29.23149776 52.94850495 -30.43420474 50.88743837 -31.625 48.8125 C-31.975625 48.23435547 -32.32625 47.65621094 -32.6875 47.06054688 C-34.26598183 44.26663403 -35.13694653 42.62918789 -34.44140625 39.43359375 C-32.79676418 36.65686744 -31.08914616 33.94463818 -29.3125 31.25 C-25.9980219 26.04240964 -23.36535544 20.69950336 -21 15 C-20.54620972 13.92347168 -20.54620972 13.92347168 -20.08325195 12.82519531 C-18.58845467 9.10243618 -17.62261623 6.02542684 -18 2 C-17.25234375 1.93941406 -16.5046875 1.87882812 -15.734375 1.81640625 C-14.74953125 1.73261719 -13.7646875 1.64882813 -12.75 1.5625 C-11.77546875 1.48128906 -10.8009375 1.40007812 -9.796875 1.31640625 C-6.41555087 0.93388215 -3.41146285 0 0 0 Z " fill="#BBBBBC" transform="translate(419,282)"/>
<path d="M0 0 C0.43828125 0.35191406 0.8765625 0.70382812 1.328125 1.06640625 C12.70014725 9.91901706 24.34125726 14.85684804 38 19 C39.2982126 24.76081841 40.25706972 30.08739655 40 36 C20.42942556 33.92267646 2.87243045 25.8455234 -12 13 C-12.66 12.01 -13.32 11.02 -14 10 C-12.22970554 8.70759488 -10.45874502 7.41610207 -8.6875 6.125 C-7.70136719 5.40570313 -6.71523438 4.68640625 -5.69921875 3.9453125 C-3.82476885 2.5944065 -1.92247007 1.28164671 0 0 Z " fill="#B9BABB" transform="translate(267,331)"/>
<path d="M0 0 C3.3 0 6.6 0 10 0 C10 14.52 10 29.04 10 44 C6.7 44 3.4 44 0 44 C0 29.48 0 14.96 0 0 Z " fill="#193A63" transform="translate(316,444)"/>
<path d="M0 0 C3.63 0 7.26 0 11 0 C9.76653248 5.96005365 8.24795074 11.59743825 6.1796875 17.31640625 C5.91616486 18.05833725 5.65264221 18.80026825 5.38113403 19.56468201 C4.55071797 21.899093 3.7130093 24.23080554 2.875 26.5625 C2.30550184 28.15933134 1.73648717 29.75633521 1.16796875 31.35351562 C-0.21578281 35.23769035 -1.60607411 39.11946556 -3 43 C-6.96 43 -10.92 43 -15 43 C-13.515 42.505 -13.515 42.505 -12 42 C-13.485 38.535 -13.485 38.535 -15 35 C-14.360625 34.87625 -13.72125 34.7525 -13.0625 34.625 C-12.381875 34.41875 -11.70125 34.2125 -11 34 C-10.67 33.34 -10.34 32.68 -10 32 C-9.34 32 -8.68 32 -8 32 C-7.71125 31.236875 -7.4225 30.47375 -7.125 29.6875 C-6 27 -6 27 -4 24 C-4.17402344 22.96746094 -4.34804687 21.93492187 -4.52734375 20.87109375 C-5.11939816 16.02211921 -4.06327997 12.63537264 -2.5625 8.0625 C-2.31951172 7.28326172 -2.07652344 6.50402344 -1.82617188 5.70117188 C-1.23029821 3.79671291 -0.61692677 1.89774359 0 0 Z " fill="#1C395C" transform="translate(152,444)"/>
<path d="M0 0 C3.3 0 6.6 0 10 0 C10 14.19 10 28.38 10 43 C6.7 43 3.4 43 0 43 C0 28.81 0 14.62 0 0 Z " fill="#1B395D" transform="translate(105,444)"/>
<path d="M0 0 C15.34150728 -1.42711696 34.95869502 9.06368561 47 18 C50.09591489 20.57087669 53.0836035 23.22762308 56 26 C54.25 28.0625 54.25 28.0625 52 30 C48.11460471 30.01585876 45.52070516 27.21536444 42.625 24.875 C31.09020592 15.89032387 17.3147329 9.82756533 2.8984375 7.39453125 C1 7 1 7 0 6 C-0.04080783 4.00041636 -0.04254356 1.99954746 0 0 Z " fill="#F6F9FA" transform="translate(333,167)"/>
<path d="M0 0 C1.01030273 0.20363159 1.01030273 0.20363159 2.04101562 0.41137695 C15.01258444 3.02315414 27.98472679 5.61418986 41 8 C41 8.66 41 9.32 41 10 C36.24140486 10.84313364 31.48225129 11.68303708 26.72265625 12.52050781 C24.83713051 12.85257135 22.95172151 13.18529823 21.06640625 13.51855469 C18.02378094 14.05600684 14.98068397 14.5907211 11.9375 15.125 C10.49395142 15.38071777 10.49395142 15.38071777 9.02124023 15.64160156 C3.6908744 16.57458948 -1.62408327 17.37945837 -7 18 C-6.35534798 13.66695924 -4.81074878 10.13327935 -2.9375 6.1875 C-2.11572266 4.44533203 -2.11572266 4.44533203 -1.27734375 2.66796875 C-0.85582031 1.78753906 -0.43429687 0.90710938 0 0 Z " fill="#B5B8BB" transform="translate(412,260)"/>
<path d="M0 0 C0.79921875 0.00902344 1.5984375 0.01804688 2.421875 0.02734375 C3.02515625 0.03894531 3.6284375 0.05054688 4.25 0.0625 C3.59 2.3725 2.93 4.6825 2.25 7.0625 C1.25742187 7.28164062 0.26484375 7.50078125 -0.7578125 7.7265625 C-16.51175826 11.34286239 -31.07996885 17.03413177 -43.1875 28.125 C-45.75 30.0625 -45.75 30.0625 -48.5 30.0625 C-50.75 29.0625 -50.75 29.0625 -52.75 26.0625 C-39.2585085 13.8230598 -19.05011046 -0.28014868 0 0 Z " fill="#F3F6F8" transform="translate(303.75,166.9375)"/>
<path d="M0 0 C2.31 0.33 4.62 0.66 7 1 C7.16491943 1.58265625 7.32983887 2.1653125 7.49975586 2.765625 C12.21706931 19.15462524 17.84144035 33.00606994 28.82421875 46.16015625 C30 48 30 48 29.9375 51.5625 C29.628125 52.366875 29.31875 53.17125 29 54 C26 54 26 54 24.01953125 52.3046875 C11.18186341 38.17189211 1.16486591 19.24037135 0 0 Z " fill="#F5F8F9" transform="translate(221,282)"/>
<path d="M0 0 C0.66 0 1.32 0 2 0 C4 3 4 3 3.8515625 5.37890625 C2.84332103 8.48225499 1.40891659 10.38921454 -0.625 12.9375 C-9.99710509 25.47834903 -16.11191627 40.4333522 -18 56 C-21.465 56.495 -21.465 56.495 -25 57 C-25.79263351 38.15018425 -15.40382296 19.30269392 -4 5 C-3.30390625 4.07574219 -2.6078125 3.15148437 -1.890625 2.19921875 C-1.26671875 1.47347656 -0.6428125 0.74773437 0 0 Z " fill="#F5F7F9" transform="translate(246,198)"/>
<path d="M0 0 C2.22123245 0.93387769 3.41806944 2.03019392 4.98828125 3.8359375 C-10.01758929 16.18478206 -29.83676048 28.8359375 -50.01171875 28.8359375 C-50.01171875 26.8559375 -50.01171875 24.8759375 -50.01171875 22.8359375 C-45.27153267 20.70346304 -40.65680192 19.10828024 -35.63671875 17.7109375 C-24.73167555 14.4731807 -14.12458736 9.31480232 -5.19921875 2.2109375 C-2.01171875 -0.1640625 -2.01171875 -0.1640625 0 0 Z " fill="#F4F7F8" transform="translate(383.01171875,338.1640625)"/>
<path d="M0 0 C3.08015809 1.17468244 5.38953852 3.00924183 8.03515625 4.97265625 C20.09369752 13.62998159 33.7145073 18.93230717 48.22265625 21.84765625 C48.22265625 24.15765625 48.22265625 26.46765625 48.22265625 28.84765625 C28.65208181 26.77033271 11.0950867 18.69317965 -3.77734375 5.84765625 C-4.43734375 4.85765625 -5.09734375 3.86765625 -5.77734375 2.84765625 C-2.36128536 -0.20239589 -2.36128536 -0.20239589 0 0 Z " fill="#F3F6F8" transform="translate(258.77734375,338.15234375)"/>
<path d="M0 0 C0.32017301 5.7707373 -0.72693632 10.25657375 -2.625 15.6875 C-2.89715332 16.47842041 -3.16930664 17.26934082 -3.44970703 18.08422852 C-8.39779028 32.10284707 -15.84680077 44.12157225 -26 55 C-26.66 55 -27.32 55 -28 55 C-30.06919988 51.59190609 -30.06919988 51.59190609 -29.78125 49.12890625 C-28.79309361 46.43618008 -27.33530391 44.83784925 -25.4375 42.6875 C-15.78790928 30.89355579 -9.18310538 16.09789724 -7 1 C-4.50935112 0.31292445 -2.62113708 0 0 0 Z " fill="#F5F8F9" transform="translate(419,282)"/>
<path d="M0 0 C5.61 0 11.22 0 17 0 C17.10796306 3.2508878 17.18729295 6.49819179 17.25 9.75 C17.28351563 10.67039062 17.31703125 11.59078125 17.3515625 12.5390625 C17.44996733 19.32899608 17.44996733 19.32899608 15.21875 22.65625 C11.95267071 24.63429802 9.60646016 23.83226004 6 23 C6.66 21.68 7.32 20.36 8 19 C8.66 19 9.32 19 10 19 C9.67 18.484375 9.34 17.96875 9 17.4375 C7.67989123 14.21973488 7.86757895 11.4429472 8 8 C5.36 8 2.72 8 0 8 C0 5.36 0 2.72 0 0 Z " fill="#1B3B63" transform="translate(290,463)"/>
<path d="M0 0 C0 3.34178979 -0.50649668 4.15655203 -2.2734375 6.88671875 C-2.76408691 7.65306641 -3.25473633 8.41941406 -3.76025391 9.20898438 C-4.29312012 10.02689453 -4.82598633 10.84480469 -5.375 11.6875 C-6.47437881 13.39946964 -7.57332973 15.11171412 -8.671875 16.82421875 C-9.22810547 17.68708496 -9.78433594 18.54995117 -10.35742188 19.43896484 C-12.81507839 23.27083417 -15.22137141 27.13409642 -17.625 31 C-19.71522269 34.35797578 -21.80563897 37.70845846 -24 41 C-25.65 36.71 -27.3 32.42 -29 28 C-27.989375 27.154375 -26.97875 26.30875 -25.9375 25.4375 C-19.5416539 19.85546228 -13.65373784 13.73290731 -7.68603516 7.70214844 C-5.46524776 5.46013718 -3.23349246 3.22934869 -1 1 C-0.67 0.67 -0.34 0.34 0 0 Z " fill="#B5B9BD" transform="translate(378,208)"/>
<path d="M0 0 C1.12019531 0.1959375 2.24039063 0.391875 3.39453125 0.59375 C11.0779043 2.07430673 18.72943754 3.71186814 26.375 5.375 C26.375 7.355 26.375 9.335 26.375 11.375 C17.37032072 10.67345201 8.60434777 9.0182843 -0.25 7.3125 C-1.74601828 7.02759819 -3.24211156 6.74308997 -4.73828125 6.45898438 C-8.36806291 5.76885511 -11.9968027 5.07341682 -15.625 4.375 C-15.295 3.715 -14.965 3.055 -14.625 2.375 C-13.30351173 1.99743192 -11.96664079 1.6731424 -10.625 1.375 C-9.86960938 1.02179688 -9.11421875 0.66859375 -8.3359375 0.3046875 C-5.12457435 -0.79661571 -3.3287045 -0.58845172 0 0 Z " fill="#284469" transform="translate(240.625,278.625)"/>
<path d="M0 0 C0.99 1.32 1.98 2.64 3 4 C3.33 3.34 3.66 2.68 4 2 C4.33 2 4.66 2 5 2 C4.61611384 8.98937562 3.78477299 15.81268824 2.5 22.6875 C2.36940186 23.39455078 2.23880371 24.10160156 2.10424805 24.83007812 C1.12994254 29.87005746 1.12994254 29.87005746 0 31 C-1.99958364 31.04080783 -4.00045254 31.04254356 -6 31 C-4.98544167 23.36097256 -3.83638254 15.76499512 -2.4375 8.1875 C-2.31076904 7.48818359 -2.18403809 6.78886719 -2.0534668 6.06835938 C-1.12127335 1.12127335 -1.12127335 1.12127335 0 0 Z " fill="#284365" transform="translate(304,189)"/>
<path d="M0 0 C0.33 0 0.66 0 1 0 C1.50604984 6.98629919 1.0333905 11.20200116 -3 17 C-1.35 16.34 0.3 15.68 2 15 C2 16.65 2 18.3 2 20 C2.66 20.33 3.32 20.66 4 21 C-0.455 23.97 -0.455 23.97 -5 27 C-5.66 26.67 -6.32 26.34 -7 26 C-6.67 25.34 -6.34 24.68 -6 24 C-6 22.68 -6 21.36 -6 20 C-7.32 20.33 -8.64 20.66 -10 21 C-10.74043022 14.98283286 -8.3951829 11.81712654 -5.0625 7.125 C-4.59392578 6.43664062 -4.12535156 5.74828125 -3.64257812 5.0390625 C-2.46610036 3.33274655 -1.23745133 1.66262691 0 0 Z " fill="#264368" transform="translate(266,309)"/>
<path d="M0 0 C0.33 0 0.66 0 1 0 C1 2.64 1 5.28 1 8 C6.94 8 12.88 8 19 8 C19 10.64 19 13.28 19 16 C16.22754986 16.13487595 13.46162912 16.23400807 10.6875 16.3125 C9.90181641 16.35439453 9.11613281 16.39628906 8.30664062 16.43945312 C6.10524879 16.48629125 4.15488132 16.45598853 2 16 C-0.56039105 13.32322754 -0.97990472 11.78371591 -1.07421875 8.10546875 C-0.94660156 7.14253906 -0.81898438 6.17960937 -0.6875 5.1875 C-0.56761719 4.21167969 -0.44773437 3.23585938 -0.32421875 2.23046875 C-0.21722656 1.49441406 -0.11023438 0.75835937 0 0 Z " fill="#1A385D" transform="translate(390,453)"/>
<path d="M0 0 C3.3 0 6.6 0 10 0 C10 14.52 10 29.04 10 44 C6.7 44 3.4 44 0 44 C0 29.48 0 14.96 0 0 Z M1 1 C1 14.53 1 28.06 1 42 C3.31 42 5.62 42 8 42 C8 28.47 8 14.94 8 1 C5.69 1 3.38 1 1 1 Z " fill="#304763" transform="translate(316,444)"/>
<path d="M0 0 C4.81035973 4.3730543 8.59926143 9.46277438 12 15 C12 15.66 12 16.32 12 17 C10.06372231 17.10807131 8.12572244 17.1856225 6.1875 17.25 C4.56908203 17.31960937 4.56908203 17.31960937 2.91796875 17.390625 C0 17 0 17 -1.88671875 15.109375 C-3 13 -3 13 -3 11 C-3.99 10.67 -4.98 10.34 -6 10 C-4.02 6.7 -2.04 3.4 0 0 Z " fill="#BFC0C0" transform="translate(389,203)"/>
<path d="M0 0 C4.29 0 8.58 0 13 0 C13 3.63 13 7.26 13 11 C8.71 11 4.42 11 0 11 C0 7.37 0 3.74 0 0 Z " fill="#F2F5F7" transform="translate(470,452)"/>
<path d="M0 0 C0 2.31 0 4.62 0 7 C-3.06147257 7.50642925 -6.12432299 8.00399322 -9.1875 8.5 C-10.05181641 8.64308594 -10.91613281 8.78617188 -11.80664062 8.93359375 C-15.90526577 9.59314262 -19.83226024 10.20709266 -24 10 C-23.01 9.67 -22.02 9.34 -21 9 C-21 8.01 -21 7.02 -21 6 C-22.32 5.34 -23.64 4.68 -25 4 C-21.39662187 3.32902306 -17.79217704 2.66396043 -14.1875 2 C-13.16333984 1.80921875 -12.13917969 1.6184375 -11.08398438 1.421875 C-9.60961914 1.15117187 -9.60961914 1.15117187 -8.10546875 0.875 C-6.74651489 0.62363281 -6.74651489 0.62363281 -5.36010742 0.3671875 C-3 0 -3 0 0 0 Z " fill="#284367" transform="translate(267,247)"/>
<path d="M0 0 C0.66 1.98 1.32 3.96 2 6 C4.86724686 5.42655063 5.8614515 5.1385485 8 3 C9.69042399 8.13506157 8.23642489 12.71789392 7.0625 17.8125 C6.86720703 18.69615234 6.67191406 19.57980469 6.47070312 20.49023438 C5.98932577 22.66230292 5.49886485 24.83189331 5 27 C4.34 27 3.68 27 3 27 C2.32533254 23.77245186 1.66169431 20.54273065 1 17.3125 C0.80921875 16.40048828 0.6184375 15.48847656 0.421875 14.54882812 C0.24140625 13.66259766 0.0609375 12.77636719 -0.125 11.86328125 C-0.29257812 11.05157471 -0.46015625 10.23986816 -0.6328125 9.40356445 C-1.0153713 6.89938135 -1.06298509 4.52924498 -1 2 C-3.31 2 -5.62 2 -8 2 C-8 1.67 -8 1.34 -8 1 C-5.23735711 0.40267181 -2.83967231 0 0 0 Z " fill="#2E4768" transform="translate(316,401)"/>
<path d="M0 0 C0.66 0 1.32 0 2 0 C4.71391278 4.77357872 6.56561146 8.34388537 6 14 C-1.12082353 13.7362658 -6.34385529 11.3696036 -12 7 C-12 6.34 -12 5.68 -12 5 C-11.30132812 4.97421875 -10.60265625 4.9484375 -9.8828125 4.921875 C-8.97273438 4.86515625 -8.06265625 4.8084375 -7.125 4.75 C-6.22007812 4.70359375 -5.31515625 4.6571875 -4.3828125 4.609375 C-1.82889456 4.24388852 -1.82889456 4.24388852 -0.6796875 1.953125 C-0.34324219 0.98632812 -0.34324219 0.98632812 0 0 Z " fill="#2B4666" transform="translate(383,324)"/>
<path d="M0 0 C2.4375 0.375 2.4375 0.375 5 1 C6.43060128 3.86120256 6.38692581 5.84010585 6 9 C3.625 10.75 3.625 10.75 1 12 C-1.31622777 14.10540926 -1.31622777 14.10540926 -3 18 C-3.33 14.7 -3.66 11.4 -4 8 C-10.93 7.505 -10.93 7.505 -18 7 C-18 10.63 -18 14.26 -18 18 C-18.33 18 -18.66 18 -19 18 C-19 14.04 -19 10.08 -19 6 C-18.34 6 -17.68 6 -17 6 C-16.67 5.34 -16.34 4.68 -16 4 C-16 4.66 -16 5.32 -16 6 C-14.62714844 5.87431641 -14.62714844 5.87431641 -13.2265625 5.74609375 C-12.03804688 5.64425781 -10.84953125 5.54242188 -9.625 5.4375 C-8.44164062 5.33308594 -7.25828125 5.22867187 -6.0390625 5.12109375 C-3 5 -3 5 -1 6 C-0.67 4.02 -0.34 2.04 0 0 Z " fill="#183456" transform="translate(487,445)"/>
<path d="M0 0 C1.32 0.66 2.64 1.32 4 2 C4.33 1.34 4.66 0.68 5 0 C9.41116035 1.5202304 13.02949632 3.89288871 16.8125 6.5625 C17.40998047 6.97435547 18.00746094 7.38621094 18.62304688 7.81054688 C20.1031559 8.84408586 21.55453163 9.91854416 23 11 C23 11.33 23 11.66 23 12 C17.50517838 12.99104999 13.07407683 12.97393053 8.375 9.7734375 C5.12013913 7.32952975 2.0391396 4.70575227 -1 2 C-0.67 1.34 -0.34 0.68 0 0 Z " fill="#1E395D" transform="translate(265,208)"/>
<path d="M0 0 C5.61 0 11.22 0 17 0 C17 5.94 17 11.88 17 18 C16.67 18 16.34 18 16 18 C16 12.72 16 7.44 16 2 C12.7 2.33 9.4 2.66 6 3 C5.67 3.99 5.34 4.98 5 6 C5.99 6.33 6.98 6.66 8 7 C8 6.01 8 5.02 8 4 C8.66 4 9.32 4 10 4 C9.67 7.63 9.34 11.26 9 15 C8.67 15 8.34 15 8 15 C8 12.69 8 10.38 8 8 C5.36 8 2.72 8 0 8 C0 5.36 0 2.72 0 0 Z " fill="#183254" transform="translate(290,463)"/>
<path d="M0 0 C-1.32 1.65 -2.64 3.3 -4 5 C-0.37 5.99 3.26 6.98 7 8 C7 8.33 7 8.66 7 9 C0.74949798 9.21678042 -4.83783531 8.45326675 -10.9375 7.125 C-11.79923828 6.95097656 -12.66097656 6.77695312 -13.54882812 6.59765625 C-14.36673828 6.42363281 -15.18464844 6.24960937 -16.02734375 6.0703125 C-16.76718506 5.91320801 -17.50702637 5.75610352 -18.26928711 5.59423828 C-20 5 -20 5 -21 3 C-18.6263603 2.49265716 -16.25142575 1.99397614 -13.875 1.5 C-13.20984375 1.35691406 -12.5446875 1.21382813 -11.859375 1.06640625 C-7.83943578 0.2387717 -4.10095101 -0.15330658 0 0 Z " fill="#264064" transform="translate(178,265)"/>
<path d="M0 0 C0.33 0 0.66 0 1 0 C1 2.64 1 5.28 1 8 C3.64 8 6.28 8 9 8 C9.33 9.98 9.66 11.96 10 14 C10.33 14 10.66 14 11 14 C11.34538204 17.10843835 11.23301458 18.62515045 9.5625 21.3125 C5.80766223 23.78519805 2.37248747 23.33634519 -2 23 C-2 19 -2 19 -1 17 C1.64860427 16.40644386 4.29197322 16.25790731 7 16 C7.33 13.69 7.66 11.38 8 9 C5.36 9 2.72 9 0 9 C0 6.03 0 3.06 0 0 Z " fill="#335074" transform="translate(289,463)"/>
<path d="M0 0 C0.66 0 1.32 0 2 0 C4.90836079 5.58405271 5.20320943 8.90056211 4 15 C3.80569764 16.33235904 3.61774267 17.66566623 3.4375 19 C3.293125 19.99 3.14875 20.98 3 22 C2.67 21.34 2.34 20.68 2 20 C1.34 20 0.68 20 0 20 C0 19.01 0 18.02 0 17 C-0.99 17.33 -1.98 17.66 -3 18 C-2.32418477 11.91766294 -1.26361972 5.98685848 0 0 Z " fill="#2A4363" transform="translate(336,314)"/>
<path d="M0 0 C4.29 0.66 8.58 1.32 13 2 C8.25 13.875 8.25 13.875 6 15 C4.99781939 12.6884227 3.99816342 10.37581116 3 8.0625 C2.71382813 7.40314453 2.42765625 6.74378906 2.1328125 6.06445312 C0 1.11328125 0 1.11328125 0 0 Z " fill="#BABCBD" transform="translate(356,251)"/>
<path d="M0 0 C-0.33 1.65 -0.66 3.3 -1 5 C-7.87408948 6.32194029 -14.22567088 5.85345645 -21 4 C-21.33 3.34 -21.66 2.68 -22 2 C-19.46045692 1.46615306 -16.9193065 0.94769806 -14.375 0.4375 C-13.66214844 0.28603516 -12.94929687 0.13457031 -12.21484375 -0.02148438 C-7.83982036 -0.8844477 -4.41938826 -1.05256724 0 0 Z " fill="#B7BABC" transform="translate(209,266)"/>
<path d="M0 0 C0.66 1.32 1.32 2.64 2 4 C3.32 3.67 4.64 3.34 6 3 C5.85957123 4.64630328 5.71250671 6.29204179 5.5625 7.9375 C5.48128906 8.85402344 5.40007812 9.77054688 5.31640625 10.71484375 C5 13 5 13 4 14 C2.02 14 0.04 14 -2 14 C-1.34 9.38 -0.68 4.76 0 0 Z " fill="#2F496B" transform="translate(300,206)"/>
<path d="M0 0 C0 1.65 0 3.3 0 5 C0.66 5.33 1.32 5.66 2 6 C-2.455 8.97 -2.455 8.97 -7 12 C-7.66 11.67 -8.32 11.34 -9 11 C-8.67 10.34 -8.34 9.68 -8 9 C-8 7.68 -8 6.36 -8 5 C-2.77272727 0 -2.77272727 0 0 0 Z " fill="#1E3B5F" transform="translate(268,324)"/>
<path d="M0 0 C0.33 0 0.66 0 1 0 C1.22262303 6.7281627 0.95021536 12.53991163 -1 19 C0.32 19.33 1.64 19.66 3 20 C3.33 21.32 3.66 22.64 4 24 C2.02 23.67 0.04 23.34 -2 23 C-3.10477751 17.432214 -2.74945228 13.08309081 -1.5625 7.5625 C-1.41490234 6.83095703 -1.26730469 6.09941406 -1.11523438 5.34570312 C-0.75376742 3.56168879 -0.3783325 1.78051398 0 0 Z " fill="#314869" transform="translate(330,344)"/>
<path d="M0 0 C3.56496018 1.62120808 6.59008822 3.7594426 9.75 6.0625 C11.22726562 7.13177734 11.22726562 7.13177734 12.734375 8.22265625 C13.48203125 8.80917969 14.2296875 9.39570313 15 10 C15 10.33 15 10.66 15 11 C12.36 11.33 9.72 11.66 7 12 C7 14.97 7 17.94 7 21 C6.34 20.67 5.68 20.34 5 20 C5.11362262 18.5199159 5.24122908 17.04089926 5.375 15.5625 C5.44460938 14.73878906 5.51421875 13.91507813 5.5859375 13.06640625 C5.72257812 12.38449219 5.85921875 11.70257813 6 11 C6.66 10.67 7.32 10.34 8 10 C7.13375 9.04287109 7.13375 9.04287109 6.25 8.06640625 C5.5075 7.24011719 4.765 6.41382813 4 5.5625 C3.2575 4.73878906 2.515 3.91507813 1.75 3.06640625 C0 1 0 1 0 0 Z " fill="#A0ACBB" transform="translate(261,208)"/>
<path d="M0 0 C-0.14166357 1.91697937 -0.28849584 3.83357723 -0.4375 5.75 C-0.51871094 6.81734375 -0.59992188 7.8846875 -0.68359375 8.984375 C-0.94090773 11.43679962 -1.31812218 13.63921291 -2 16 C-2.66 16 -3.32 16 -4 16 C-4.24887295 13.89807303 -4.4734719 11.79326036 -4.6875 9.6875 C-4.81511719 8.51574219 -4.94273437 7.34398437 -5.07421875 6.13671875 C-5 3 -5 3 -3.64453125 1.08203125 C-2 0 -2 0 0 0 Z " fill="#193559" transform="translate(323,412)"/>
<path d="M0 0 C4.29 0.66 8.58 1.32 13 2 C10.73625389 4.26374611 9.68987631 4.48351426 6.625 5.125 C5.85414063 5.29257812 5.08328125 5.46015625 4.2890625 5.6328125 C2 6 2 6 -2 6 C-1.34 4.02 -0.68 2.04 0 0 Z " fill="#2E4360" transform="translate(470,266)"/>
<path d="M0 0 C-0.45822468 3.46941546 -0.89131683 6.67395049 -2 10 C-4.5625 11.1875 -4.5625 11.1875 -7 12 C-7 10.02 -7 8.04 -7 6 C-6.34 6 -5.68 6 -5 6 C-5 4.35 -5 2.7 -5 1 C-2 0 -2 0 0 0 Z " fill="#1C3A5F" transform="translate(308,199)"/>
<path d="M0 0 C2.475 0.99 2.475 0.99 5 2 C5 2.99 5 3.98 5 5 C4.01 5 3.02 5 2 5 C1.67 6.65 1.34 8.3 1 10 C-0.9375 9.25 -0.9375 9.25 -3 8 C-3.75 5.875 -3.75 5.875 -4 4 C-3.01 3.67 -2.02 3.34 -1 3 C-0.67 2.01 -0.34 1.02 0 0 Z " fill="#1B3759" transform="translate(246,463)"/>
<path d="M0 0 C3 3 3 3 3.375 6 C3 9 3 9 1.5 10.875 C0.7575 11.431875 0.7575 11.431875 0 12 C-0.33 11.01 -0.66 10.02 -1 9 C-2.32 8.67 -3.64 8.34 -5 8 C-3.35 5.36 -1.7 2.72 0 0 Z " fill="#274368" transform="translate(375,214)"/>
<path d="M0 0 C0 0.66 0 1.32 0 2 C-0.66 2 -1.32 2 -2 2 C-2 2.99 -2 3.98 -2 5 C-1.01 5.33 -0.02 5.66 1 6 C-2.3 6.33 -5.6 6.66 -9 7 C-8.1875 3.5625 -8.1875 3.5625 -7 0 C-3.86650268 -1.04449911 -3.01031744 -0.93423645 0 0 Z " fill="#2E4768" transform="translate(411,278)"/>
<path d="M0 0 C1.44096586 0.42594588 2.87768712 0.86626633 4.3125 1.3125 C5.11300781 1.55613281 5.91351563 1.79976562 6.73828125 2.05078125 C9.09964573 3.04182023 10.33879993 4.08074943 12 6 C10.20866022 6.05391993 8.41686101 6.09275571 6.625 6.125 C5.62726563 6.14820313 4.62953125 6.17140625 3.6015625 6.1953125 C1 6 1 6 -1 4 C-0.625 1.875 -0.625 1.875 0 0 Z " fill="#374F6E" transform="translate(276,214)"/>
<path d="M0 0 C2 2 2 2 2.1953125 5.2578125 C2.16050781 7.17207031 2.16050781 7.17207031 2.125 9.125 C2.10695313 10.40632812 2.08890625 11.68765625 2.0703125 13.0078125 C2.04710937 13.99523437 2.02390625 14.98265625 2 16 C1.34 15.67 0.68 15.34 0 15 C0 14.01 0 13.02 0 12 C-0.99 12 -1.98 12 -3 12 C-2.25749403 7.91621717 -1.17076699 3.98060777 0 0 Z " fill="#183963" transform="translate(435,239)"/>
<path d="M0 0 C0 3.84308365 -1.30179208 5.41787428 -3.375 8.625 C-4.00148438 9.60726562 -4.62796875 10.58953125 -5.2734375 11.6015625 C-7 14 -7 14 -9 15 C-9.33 14.34 -9.66 13.68 -10 13 C-10.66 12.67 -11.32 12.34 -12 12 C-11.38511719 11.46890625 -10.77023437 10.9378125 -10.13671875 10.390625 C-9.32847656 9.68421875 -8.52023437 8.9778125 -7.6875 8.25 C-6.48673828 7.20585937 -6.48673828 7.20585937 -5.26171875 6.140625 C-3.22034399 4.20854665 -1.60107149 2.30056874 0 0 Z " fill="#A6B2BE" transform="translate(378,208)"/>
<path d="M0 0 C0.99 0 1.98 0 3 0 C2.67 1.32 2.34 2.64 2 4 C2.99 4.66 3.98 5.32 5 6 C-1.28571429 8.42857143 -1.28571429 8.42857143 -5 7 C-5 6.34 -5 5.68 -5 5 C-5.66 4.67 -6.32 4.34 -7 4 C-4.625 2.4375 -4.625 2.4375 -2 1 C-1.34 1.33 -0.68 1.66 0 2 C0 1.34 0 0.68 0 0 Z " fill="#274367" transform="translate(392,192)"/>
<path d="M0 0 C0 0.66 0 1.32 0 2 C-3.3 2.66 -6.6 3.32 -10 4 C-9.67 4.66 -9.34 5.32 -9 6 C-10.4800841 5.88637738 -11.95910074 5.75877092 -13.4375 5.625 C-14.26121094 5.55539062 -15.08492187 5.48578125 -15.93359375 5.4140625 C-16.61550781 5.27742188 -17.29742187 5.14078125 -18 5 C-18.33 4.34 -18.66 3.68 -19 3 C-16.39643759 2.49666458 -13.79223349 1.99720622 -11.1875 1.5 C-10.08051758 1.28537109 -10.08051758 1.28537109 -8.95117188 1.06640625 C-5.92205609 0.49073719 -3.090804 0 0 0 Z " fill="#98A8B5" transform="translate(206,265)"/>
<path d="M0 0 C3.1875 0.875 3.1875 0.875 6 2 C4.75023244 5.65316671 4.32901247 6.78065836 1 9 C0.34 8.34 -0.32 7.68 -1 7 C-1 6.01 -1 5.02 -1 4 C-1.66 3.34 -2.32 2.68 -3 2 C-2.01 1.34 -1.02 0.68 0 0 Z " fill="#264268" transform="translate(372,205)"/>
<path d="M0 0 C3 3.75 3 3.75 3 6 C4.32 6 5.64 6 7 6 C7 6.66 7 7.32 7 8 C12.94 8 18.88 8 25 8 C25 8.33 25 8.66 25 9 C21.95736733 9.10845027 18.91863796 9.18752063 15.875 9.25 C15.0190625 9.28351563 14.163125 9.31703125 13.28125 9.3515625 C7.52149312 9.44017414 4.39238481 8.81610392 0 5 C-0.9375 2.8125 -0.9375 2.8125 -1 1 C-0.67 0.67 -0.34 0.34 0 0 Z " fill="#55667B" transform="translate(274,479)"/>
<path d="M0 0 C0.33 0.66 0.66 1.32 1 2 C0.67 2.66 0.34 3.32 0 4 C0.66 4 1.32 4 2 4 C1.67 6.97 1.34 9.94 1 13 C-0.32 12.34 -1.64 11.68 -3 11 C-2.8864371 9.35333797 -2.75882619 7.70763918 -2.625 6.0625 C-2.55539062 5.14597656 -2.48578125 4.22945313 -2.4140625 3.28515625 C-2.27742188 2.53105469 -2.14078125 1.77695312 -2 1 C-1.34 0.67 -0.68 0.34 0 0 Z " fill="#1A3861" transform="translate(336,330)"/>
<path d="M0 0 C1.32 0 2.64 0 4 0 C4.75 1.625 4.75 1.625 5 4 C3.0625 7.25 3.0625 7.25 1 10 C-1.29404844 6.55892734 -1.26293056 5.03160191 -1 1 C-0.67 0.67 -0.34 0.34 0 0 Z " fill="#1D395E" transform="translate(370,223)"/>
<path d="M0 0 C4.40114397 0.50298788 6.71195019 2.08772731 10 5 C7.69 4.67 5.38 4.34 3 4 C2.67 4.66 2.34 5.32 2 6 C0.68 5.34 -0.64 4.68 -2 4 C-1.34 3.67 -0.68 3.34 0 3 C0 2.01 0 1.02 0 0 Z " fill="#284267" transform="translate(273,211)"/>
<path d="M0 0 C0.66 1.32 1.32 2.64 2 4 C1.01 4.33 0.02 4.66 -1 5 C-1.33 5.99 -1.66 6.98 -2 8 C-5.5625 9.1875 -5.5625 9.1875 -9 10 C-8.06409496 8.8944811 -7.12620142 7.79064547 -6.1875 6.6875 C-5.66542969 6.07261719 -5.14335937 5.45773438 -4.60546875 4.82421875 C-3.12827531 3.14575321 -1.59960869 1.56117966 0 0 Z " fill="#ABB2B8" transform="translate(361,225)"/>
<path d="M0 0 C0.99 0.33 1.98 0.66 3 1 C3.40322225 4.52819467 3.18545105 5.74276145 1.0625 8.6875 C0.381875 9.450625 -0.29875 10.21375 -1 11 C-1.33 11.66 -1.66 12.32 -2 13 C-2.66 12.67 -3.32 12.34 -4 12 C-2.68 8.04 -1.36 4.08 0 0 Z " fill="#304865" transform="translate(146,463)"/>
<path d="M0 0 C3.63 0 7.26 0 11 0 C11 0.33 11 0.66 11 1 C8.69 1 6.38 1 4 1 C4 2.98 4 4.96 4 7 C4.66 7 5.32 7 6 7 C6 7.99 6 8.98 6 10 C5.01 9.67 4.02 9.34 3 9 C1.66140666 6.0859429 0.91238901 3.0847438 0 0 Z " fill="#20334F" transform="translate(121,444)"/>
<path d="M0 0 C0.66 0.99 1.32 1.98 2 3 C1.67 3.99 1.34 4.98 1 6 C0.65772583 7.33106622 0.32248257 8.66400079 0 10 C-0.66 9.01 -1.32 8.02 -2 7 C-2.33 7.66 -2.66 8.32 -3 9 C-3.66 9 -4.32 9 -5 9 C-3.90931332 5.22454612 -3.0916909 2.52956528 0 0 Z " fill="#2B4462" transform="translate(432,220)"/>
<path d="M0 0 C0 0.66 0 1.32 0 2 C0.99 2.33 1.98 2.66 3 3 C2.01 3.99 1.02 4.98 0 6 C-2.31 5.34 -4.62 4.68 -7 4 C-2.25 0 -2.25 0 0 0 Z " fill="#2B476C" transform="translate(360,168)"/>
<path d="M0 0 C1.32 0.33 2.64 0.66 4 1 C2.625 3 2.625 3 1 5 C0.34 5 -0.32 5 -1 5 C-1.33 6.65 -1.66 8.3 -2 10 C-2.99 9.67 -3.98 9.34 -5 9 C-3.35 6.03 -1.7 3.06 0 0 Z " fill="#243E5D" transform="translate(408,315)"/>
<path d="M0 0 C0 0.99 0 1.98 0 3 C-0.66 3 -1.32 3 -2 3 C-2 3.66 -2 4.32 -2 5 C-3.65 4.67 -5.3 4.34 -7 4 C-6.6875 2.0625 -6.6875 2.0625 -6 0 C-3 -1 -3 -1 0 0 Z " fill="#18375F" transform="translate(470,267)"/>
<path d="M0 0 C1.21518987 4.86075949 1.21518987 4.86075949 0 8 C-1.5625 9.75 -1.5625 9.75 -3 11 C-3.99 10.67 -4.98 10.34 -6 10 C-4.02 6.7 -2.04 3.4 0 0 Z " fill="#B1BAC4" transform="translate(389,203)"/>
<path d="M0 0 C0.66 0 1.32 0 2 0 C2.33 2.97 2.66 5.94 3 9 C1.68 9.33 0.36 9.66 -1 10 C-0.67 6.7 -0.34 3.4 0 0 Z " fill="#42546D" transform="translate(319,107)"/>
<path d="M0 0 C0.98120464 3.05263664 0.98120464 4.94736336 0 8 C-1.98 7.01 -3.96 6.02 -6 5 C-5.195625 4.360625 -4.39125 3.72125 -3.5625 3.0625 C-1.7249496 1.59396498 -1.7249496 1.59396498 0 0 Z " fill="#AEB3B6" transform="translate(267,331)"/>
<path d="M0 0 C0.99 0.495 0.99 0.495 2 1 C2.144375 1.61875 2.28875 2.2375 2.4375 2.875 C2.82511066 5.10780964 2.82511066 5.10780964 4.625 6.5 C5.07875 6.995 5.5325 7.49 6 8 C5.5859375 10.09375 5.5859375 10.09375 5 12 C0.09846827 5.92560175 0.09846827 5.92560175 -0.3125 2.0625 C-0.209375 1.381875 -0.10625 0.70125 0 0 Z " fill="#2A3F60" transform="translate(261,216)"/>
<path d="M0 0 C0.33 1.32 0.66 2.64 1 4 C-5.15234375 3.4140625 -5.15234375 3.4140625 -7 3 C-7.33 2.34 -7.66 1.68 -8 1 C-5.23735711 0.40267181 -2.83967231 0 0 0 Z " fill="#425469" transform="translate(165,267)"/>
<path d="M0 0 C1.485 0.99 1.485 0.99 3 2 C2.67 2.66 2.34 3.32 2 4 C3.98 4 5.96 4 8 4 C8 4.66 8 5.32 8 6 C5.03 5.67 2.06 5.34 -1 5 C-0.67 3.35 -0.34 1.7 0 0 Z " fill="#2E4464" transform="translate(414,256)"/>
<path d="M0 0 C0.66 0.66 1.32 1.32 2 2 C1.67 2.99 1.34 3.98 1 5 C-1.97 4.505 -1.97 4.505 -5 4 C-5 3.34 -5 2.68 -5 2 C-3.35 1.34 -1.7 0.68 0 0 Z " fill="#203C63" transform="translate(382,331)"/>
<path d="M0 0 C1.98 0 3.96 0 6 0 C6 1.98 6 3.96 6 6 C5.34 5.34 4.68 4.68 4 4 C2.68 4 1.36 4 0 4 C0 2.68 0 1.36 0 0 Z " fill="#1A3559" transform="translate(261,284)"/>
<path d="M0 0 C1.32 0 2.64 0 4 0 C3.67 1.32 3.34 2.64 3 4 C0.03 4 -2.94 4 -6 4 C-2 2 -2 2 0 2 C0 1.34 0 0.68 0 0 Z " fill="#1B3863" transform="translate(256,283)"/>
<path d="M0 0 C1.32 0.33 2.64 0.66 4 1 C0.535 3.97 0.535 3.97 -3 7 C-2.25 2.25 -2.25 2.25 0 0 Z " fill="#2A4566" transform="translate(236,181)"/>
<path d="M0 0 C-0.33 1.32 -0.66 2.64 -1 4 C-2.32 4 -3.64 4 -5 4 C-5 5.32 -5 6.64 -5 8 C-5.66 7.67 -6.32 7.34 -7 7 C-6.39816251 4.97954558 -5.72693904 2.97888961 -5 1 C-3 0 -3 0 0 0 Z " fill="#2A466A" transform="translate(313,360)"/>
<path d="M0 0 C2.39763185 2.39763185 2.34280586 3.33273498 2.625 6.625 C2.69976562 7.44226563 2.77453125 8.25953125 2.8515625 9.1015625 C2.90054687 9.72804687 2.94953125 10.35453125 3 11 C2.34 11 1.68 11 1 11 C-0.17571451 7.32589215 -0.07366746 3.83070817 0 0 Z " fill="#A8B4BE" transform="translate(324,162)"/>
<path d="M0 0 C0.99 0 1.98 0 3 0 C2.67 2.64 2.34 5.28 2 8 C1.34 8 0.68 8 0 8 C0 5.36 0 2.72 0 0 Z " fill="#39495E" transform="translate(319,420)"/>
<path d="M0 0 C0.99 0.33 1.98 0.66 3 1 C2.67 3.64 2.34 6.28 2 9 C1.67 8.34 1.34 7.68 1 7 C0.34 7 -0.32 7 -1 7 C-0.67 4.69 -0.34 2.38 0 0 Z " fill="#1F3D67" transform="translate(337,318)"/>
<path d="M0 0 C-1.32 0.33 -2.64 0.66 -4 1 C-3.67 2.65 -3.34 4.3 -3 6 C-4.32 6 -5.64 6 -7 6 C-7.33 4.35 -7.66 2.7 -8 1 C-5.07175348 0.02391783 -3.04386724 -0.08226668 0 0 Z " fill="#173756" transform="translate(416,277)"/>
<path d="M0 0 C0.66 0 1.32 0 2 0 C2 1.65 2 3.3 2 5 C2.66 5.33 3.32 5.66 4 6 C2.68 6.33 1.36 6.66 0 7 C-0.38133299 5.0085944 -0.71325582 3.00720923 -1 1 C-0.67 0.67 -0.34 0.34 0 0 Z " fill="#50607A" transform="translate(266,324)"/>
<path d="M0 0 C0.33 0 0.66 0 1 0 C1 3.3 1 6.6 1 10 C0.01 10.495 0.01 10.495 -1 11 C-1.99 10.67 -2.98 10.34 -4 10 C-4 9.34 -4 8.68 -4 8 C-2.68 8 -1.36 8 0 8 C0 5.36 0 2.72 0 0 Z " fill="#163254" transform="translate(266,309)"/>
<path d="M0 0 C2.31 0 4.62 0 7 0 C7.33 0.99 7.66 1.98 8 3 C5.03 2.67 2.06 2.34 -1 2 C-0.67 1.34 -0.34 0.68 0 0 Z " fill="#324D72" transform="translate(300,164)"/>
<path d="M0 0 C4.95 0.99 4.95 0.99 10 2 C10 2.33 10 2.66 10 3 C7.69 3.33 5.38 3.66 3 4 C2.01 2.68 1.02 1.36 0 0 Z " fill="#2E4460" transform="translate(502,483)"/>
<path d="M0 0 C0.33 0 0.66 0 1 0 C1 2.31 1 4.62 1 7 C-0.32 7 -1.64 7 -3 7 C-1.125 2.25 -1.125 2.25 0 0 Z " fill="#223F61" transform="translate(265,310)"/>
<path d="M0 0 C0.99 1.485 0.99 1.485 2 3 C5.05429073 4.21284876 5.05429073 4.21284876 8 5 C8 5.33 8 5.66 8 6 C5.66705225 6.04241723 3.33297433 6.04092937 1 6 C0 5 0 5 -0.0625 2.4375 C-0.041875 1.633125 -0.02125 0.82875 0 0 Z " fill="#394E6A" transform="translate(185,277)"/>
<path d="M0 0 C1.65 0 3.3 0 5 0 C4.01 0.495 4.01 0.495 3 1 C3 1.66 3 2.32 3 3 C-1.455 3.495 -1.455 3.495 -6 4 C-6 3.67 -6 3.34 -6 3 C-5.195625 2.87625 -4.39125 2.7525 -3.5625 2.625 C-2.716875 2.41875 -1.87125 2.2125 -1 2 C-0.67 1.34 -0.34 0.68 0 0 Z " fill="#193455" transform="translate(457,264)"/>
<path d="M0 0 C0.33 0 0.66 0 1 0 C1 2.31 1 4.62 1 7 C-0.65 7.33 -2.3 7.66 -4 8 C-3.34 7.34 -2.68 6.68 -2 6 C-1.28591666 4.01643517 -0.61382258 2.01684563 0 0 Z " fill="#3F536D" transform="translate(304,141)"/>
<path d="M0 0 C0.99 0.33 1.98 0.66 3 1 C3 3.31 3 5.62 3 8 C2.01 7.34 1.02 6.68 0 6 C-0.1875 2.875 -0.1875 2.875 0 0 Z " fill="#D3DFE9" transform="translate(522,471)"/>
<path d="M0 0 C-0.33 0.66 -0.66 1.32 -1 2 C-2.65391846 2.39171753 -4.32345271 2.72057545 -6 3 C-6.99 3.33 -7.98 3.66 -9 4 C-9 3.01 -9 2.02 -9 1 C-5.8035914 -0.06546953 -3.34252724 -0.07427838 0 0 Z " fill="#CCD6E1" transform="translate(334,402)"/>
<path d="M0 0 C2.6875 0.3125 2.6875 0.3125 5 1 C5 1.99 5 2.98 5 4 C2.36 3.67 -0.28 3.34 -3 3 C-1.8125 1.4375 -1.8125 1.4375 0 0 Z " fill="#2B476F" transform="translate(441,281)"/>
<path d="M0 0 C0 0.66 0 1.32 0 2 C-5.41538462 3.23076923 -5.41538462 3.23076923 -8.375 2.0625 C-8.91125 1.711875 -9.4475 1.36125 -10 1 C-6.56484998 0.37542727 -3.50935186 0 0 0 Z " fill="#96A4B0" transform="translate(232,260)"/>
<path d="M0 0 C2 2 2 2 2.1953125 3.9453125 C2.13020833 5.96354167 2.06510417 7.98177083 2 10 C0.23934164 7.35901246 -0.52722899 6.0257345 -1 3 C-0.67 2.01 -0.34 1.02 0 0 Z " fill="#1D3559" transform="translate(435,239)"/>
<path d="M0 0 C0.8353125 0.556875 0.8353125 0.556875 1.6875 1.125 C-1.02129335 2.47939668 -3.32183268 2.19001451 -6.3125 2.125 C-6.6425 3.115 -6.9725 4.105 -7.3125 5.125 C-7.3125 3.805 -7.3125 2.485 -7.3125 1.125 C-2.88173077 -1.09038462 -2.88173077 -1.09038462 0 0 Z " fill="#445D7D" transform="translate(339.3125,164.875)"/>
</svg>
